# This file uses centimeters as units for non-parametric coordinates.

mtllib Spear.mtl
g default
v 50.915417 1.441197 4.319012
v 61.716709 -0.707538 -1.800297
v 61.712669 -0.449763 -1.904705
v 50.907059 1.974723 4.102917
v 47.340912 -0.312675 -1.406624
v 47.349270 -0.846201 -1.190529
v -52.493828 1.066979 -1.848061
v -52.493828 1.848061 -1.066979
v -52.493828 2.133958 -0.000000
v -52.493828 1.848061 1.066979
v -52.493828 1.066979 1.848061
v -52.493828 -0.000000 2.133958
v -52.493828 -1.066979 1.848061
v -52.493828 -1.848061 1.066979
v -52.493828 -2.133958 -0.000000
v -52.493828 -1.848061 -1.066979
v -52.493828 -1.066979 -1.848061
v -52.493828 -0.000000 -2.133958
v 52.493828 0.362449 -0.627779
v 52.493828 0.627779 -0.362449
v 52.493828 0.724897 0.000000
v 52.493828 0.627779 0.362449
v 52.493828 0.362449 0.627779
v 52.493828 0.000000 0.724897
v 52.493828 -0.362449 0.627779
v 52.493828 -0.627779 0.362449
v 52.493828 -0.724897 0.000000
v 52.493828 -0.627779 -0.362449
v 52.493828 -0.362449 -0.627779
v 52.493828 0.000000 -0.724897
v -52.493828 -0.000000 -0.000000
v 52.493828 0.000000 0.000000
vt 0.625000 0.000000
vt 0.875000 0.000000
vt 0.875000 0.250000
vt 0.625000 0.250000
vt 0.625000 0.250000
vt 0.625000 0.000000
vt 0.000000 0.000000
vt 1.000000 0.000000
vt 0.848265 0.358764
vt 0.000000 0.000000
vt 0.999807 0.000000
vt 1.000000 0.018605
vt 0.000407 0.039300
vt 0.375000 0.312500
vt 0.395833 0.312500
vt 0.395833 0.688440
vt 0.375000 0.688440
vt 0.416667 0.312500
vt 0.416667 0.688440
vt 0.437500 0.312500
vt 0.437500 0.688440
vt 0.458333 0.312500
vt 0.458333 0.688440
vt 0.479167 0.312500
vt 0.479167 0.688440
vt 0.500000 0.312500
vt 0.500000 0.688440
vt 0.520833 0.312500
vt 0.520833 0.688440
vt 0.541667 0.312500
vt 0.541667 0.688440
vt 0.562500 0.312500
vt 0.562500 0.688440
vt 0.583333 0.312500
vt 0.583333 0.688440
vt 0.604167 0.312500
vt 0.604167 0.688440
vt 0.625000 0.312500
vt 0.625000 0.688440
vt 0.578125 0.020934
vt 0.635316 0.078125
vt 0.500000 0.150000
vt 0.500000 0.000000
vt 0.421875 0.020934
vt 0.364684 0.078125
vt 0.343750 0.156250
vt 0.364684 0.234375
vt 0.421875 0.291566
vt 0.500000 0.312500
vt 0.578125 0.291566
vt 0.635316 0.234375
vt 0.656250 0.156250
vt 0.635316 0.921875
vt 0.578125 0.979066
vt 0.500000 0.837500
vt 0.500000 1.000000
vt 0.421875 0.979066
vt 0.364684 0.921875
vt 0.343750 0.843750
vt 0.364684 0.765625
vt 0.421875 0.708434
vt 0.500000 0.687500
vt 0.578125 0.708434
vt 0.635316 0.765625
vt 0.656250 0.843750
vn 0.514187 0.328887 0.792114
vn 0.859066 -0.180543 -0.478967
vn 0.859062 -0.180546 -0.478974
vn 0.514187 0.328887 0.792114
vn -0.004386 0.924560 -0.381012
vn -0.004386 0.924560 -0.381012
vn -0.004386 0.924560 -0.381012
vn -0.858204 0.181094 0.480303
vn -0.858204 0.181094 0.480303
vn -0.858204 0.181094 0.480303
vn -0.858204 0.181094 0.480303
vn 0.024653 -0.928837 0.369668
vn 0.024653 -0.928837 0.369668
vn 0.024653 -0.928837 0.369668
vn -0.035678 -0.375651 -0.926074
vn -0.035678 -0.375651 -0.926074
vn 0.013420 0.499955 -0.865947
vn 0.013420 0.865947 -0.499955
vn 0.013420 0.865947 -0.499955
vn 0.013420 0.499955 -0.865947
vn 0.013420 0.999910 0.000000
vn 0.013420 0.999910 0.000000
vn 0.013420 0.865947 0.499955
vn 0.013420 0.865947 0.499955
vn 0.013420 0.499955 0.865947
vn 0.013420 0.499955 0.865947
vn 0.013420 0.000000 0.999910
vn 0.013420 0.000000 0.999910
vn 0.013420 -0.499955 0.865947
vn 0.013420 -0.499955 0.865947
vn 0.013420 -0.865947 0.499955
vn 0.013420 -0.865947 0.499955
vn 0.013420 -0.999910 0.000000
vn 0.013420 -0.999910 0.000000
vn 0.013420 -0.865947 -0.499955
vn 0.013420 -0.865947 -0.499955
vn 0.013420 -0.499955 -0.865947
vn 0.013420 -0.499955 -0.865947
vn 0.013420 0.000000 -0.999910
vn 0.013420 0.000000 -0.999910
vn -1.000000 -0.000002 0.000000
vn -1.000000 0.000002 0.000000
vn -1.000000 0.000000 0.000000
vn -1.000000 0.000000 0.000000
vn -1.000000 -0.000003 0.000000
vn -1.000000 0.000000 0.000000
vn -1.000000 0.000000 0.000000
vn -1.000000 -0.000002 0.000000
vn -1.000000 0.000002 0.000000
vn -1.000000 0.000000 0.000000
vn -1.000000 0.000003 0.000000
vn -1.000000 0.000000 0.000000
vn -1.000000 0.000000 0.000000
vn 1.000000 0.000000 0.000000
vn 1.000000 0.000000 0.000000
vn 1.000000 0.000000 0.000000
vn 1.000000 0.000000 0.000000
vn 1.000000 0.000000 0.000000
vn 1.000000 0.000000 0.000000
vn 1.000000 0.000000 0.000000
vn 1.000000 0.000000 0.000000
vn 1.000000 0.000000 0.000000
vn 1.000000 0.000000 0.000000
vn 1.000000 0.000000 0.000000
vn 1.000000 0.000000 0.000000
vn 1.000000 0.000000 0.000000
s 1
g polySurface4
usemtl initialShadingGroup
f 1/1/1 2/2/2 3/3/3 4/4/4
s off
f 3/3/5 5/5/6 4/4/7
f 5/5/8 6/6/9 1/1/10 4/4/11
f 2/7/12 1/8/13 6/9/14
s 1
f 5/10/15 3/11/3 2/12/2 6/13/16
s 2
f 7/14/17 8/15/18 20/16/19 19/17/20
f 8/15/18 9/18/21 21/19/22 20/16/19
f 9/18/21 10/20/23 22/21/24 21/19/22
f 10/20/23 11/22/25 23/23/26 22/21/24
f 11/22/25 12/24/27 24/25/28 23/23/26
f 12/24/27 13/26/29 25/27/30 24/25/28
f 13/26/29 14/28/31 26/29/32 25/27/30
f 14/28/31 15/30/33 27/31/34 26/29/32
f 15/30/33 16/32/35 28/33/36 27/31/34
f 16/32/35 17/34/37 29/35/38 28/33/36
f 17/34/37 18/36/39 30/37/40 29/35/38
f 18/36/39 7/38/17 19/39/20 30/37/40
s 3
f 8/40/41 7/41/42 31/42/43
f 9/43/44 8/40/41 31/42/43
f 10/44/45 9/43/44 31/42/43
f 11/45/46 10/44/45 31/42/43
f 12/46/47 11/45/46 31/42/43
f 13/47/48 12/46/47 31/42/43
f 14/48/49 13/47/48 31/42/43
f 15/49/50 14/48/49 31/42/43
f 16/50/51 15/49/50 31/42/43
f 17/51/52 16/50/51 31/42/43
f 18/52/53 17/51/52 31/42/43
f 7/41/42 18/52/53 31/42/43
s 4
f 19/53/54 20/54/55 32/55/56
f 20/54/55 21/56/57 32/55/56
f 21/56/57 22/57/58 32/55/56
f 22/57/58 23/58/59 32/55/56
f 23/58/59 24/59/60 32/55/56
f 24/59/60 25/60/61 32/55/56
f 25/60/61 26/61/62 32/55/56
f 26/61/62 27/62/63 32/55/56
f 27/62/63 28/63/64 32/55/56
f 28/63/64 29/64/65 32/55/56
f 29/64/65 30/65/66 32/55/56
f 30/65/66 19/53/54 32/55/56
