# This file uses centimeters as units for non-parametric coordinates.

mtllib bottle.mtl
g default
v 5.661856 1.024073 -2.345213
v 4.333398 1.024073 -4.333393
v 2.345220 1.024073 -5.661853
v 0.000003 1.024073 -6.128346
v -2.345214 1.024073 -5.661854
v -4.333394 1.024073 -4.333397
v -5.661853 1.024073 -2.345219
v -6.128346 1.024073 -0.000002
v -5.661854 1.024073 2.345215
v -4.333397 1.024073 4.333395
v -2.345218 1.024073 5.661853
v -0.000001 1.024073 6.128346
v 2.345216 1.024073 5.661854
v 4.333395 1.024073 4.333396
v 5.661854 1.024073 2.345217
v 6.128346 1.024073 0.000000
v 5.661856 23.707952 -2.345213
v 4.333398 23.707952 -4.333393
v 2.345220 23.707952 -5.661853
v 0.000003 23.707952 -6.128346
v -2.345214 23.707952 -5.661854
v -4.333394 23.707952 -4.333397
v -5.661853 23.707952 -2.345219
v -6.128346 23.707952 -0.000002
v -5.661854 23.707952 2.345215
v -4.333397 23.707952 4.333395
v -2.345218 23.707952 5.661853
v -0.000001 23.707952 6.128346
v 2.345216 23.707952 5.661854
v 4.333395 23.707952 4.333396
v 5.661854 23.707952 2.345217
v 6.128346 23.707952 0.000000
v 0.000000 1.024073 0.000000
v 2.310274 28.735132 -0.956944
v 1.768205 28.735132 -1.768203
v 0.956947 28.735132 -2.310264
v 0.000001 28.735132 -2.500617
v -0.956944 28.735132 -2.310264
v -1.768200 28.735132 -1.768204
v -2.310274 28.735132 -0.956947
v -2.500617 28.735132 -0.000002
v -2.310274 28.735132 0.956945
v -1.768205 28.735132 1.768204
v -0.956945 28.735132 2.310265
v -0.000000 28.735132 2.500618
v 0.956947 28.735132 2.310265
v 1.768200 28.735132 1.768204
v 2.310274 28.735132 0.956945
v 2.500617 28.735132 0.000000
v 2.310274 29.491592 -0.956942
v 1.768205 29.491592 -1.768203
v 0.956947 29.491592 -2.310265
v 0.000001 29.491592 -2.500617
v -0.956944 29.491592 -2.310264
v -1.768200 29.491592 -1.768204
v -2.310274 29.491592 -0.956947
v -2.500617 29.491592 -0.000002
v -2.310274 29.491592 0.956945
v -1.768205 29.491592 1.768204
v -0.956945 29.491592 2.310264
v -0.000000 29.491592 2.500617
v 0.956947 29.491592 2.310265
v 1.768200 29.491592 1.768204
v 2.310274 29.491592 0.956945
v 2.500617 29.491592 0.000000
v 2.310274 31.638638 -0.956942
v 1.768205 31.638638 -1.768203
v 0.000000 31.638638 0.000001
v 0.956947 31.638638 -2.310263
v 0.000001 31.638638 -2.500614
v -0.956944 31.638638 -2.310261
v -1.768200 31.638638 -1.768206
v -2.310274 31.638638 -0.956950
v -2.500617 31.638638 -0.000002
v -2.310274 31.638638 0.956945
v -1.768205 31.638638 1.768208
v -0.956945 31.638638 2.310266
v -0.000000 31.638638 2.500615
v 0.956947 31.638638 2.310264
v 1.768200 31.638638 1.768208
v 2.310274 31.638638 0.956949
v 2.500617 31.638638 0.000000
v 2.761182 29.491592 -1.143714
v 2.113314 29.491592 -2.113314
v 2.113314 31.638638 -2.113314
v 2.761182 31.638638 -1.143714
v 1.143720 29.491592 -2.761173
v 1.143720 31.638638 -2.761172
v 0.000001 29.491592 -2.988676
v 0.000001 31.638638 -2.988673
v -1.143717 29.491592 -2.761172
v -1.143717 31.638638 -2.761170
v -2.113308 29.491592 -2.113317
v -2.113308 31.638638 -2.113318
v -2.761181 29.491592 -1.143719
v -2.761181 31.638638 -1.143723
v -2.988677 29.491592 -0.000002
v -2.988677 31.638638 -0.000002
v -2.761182 29.491592 1.143716
v -2.761182 31.638638 1.143716
v -2.113313 29.491592 2.113316
v -2.113313 31.638638 2.113319
v -1.143717 29.491592 2.761173
v -1.143717 31.638638 2.761175
v -0.000000 29.491592 2.988677
v -0.000000 31.638638 2.988674
v 1.143720 29.491592 2.761173
v 1.143720 31.638638 2.761173
v 2.113308 29.491592 2.113317
v 2.113308 31.638638 2.113320
v 2.761181 29.491592 1.143718
v 2.761181 31.638638 1.143721
v 2.988677 29.491592 0.000000
v 2.988677 31.638638 0.000000
vt 0.644356 0.096456
vt 0.610485 0.045765
vt 0.559794 0.011894
vt 0.500000 0.000000
vt 0.440206 0.011894
vt 0.389515 0.045765
vt 0.355644 0.096456
vt 0.343750 0.156250
vt 0.355644 0.216044
vt 0.389515 0.266735
vt 0.440206 0.300606
vt 0.500000 0.312500
vt 0.559794 0.300606
vt 0.610485 0.266735
vt 0.644356 0.216044
vt 0.656250 0.156250
vt 0.375000 0.312500
vt 0.390625 0.312500
vt 0.406250 0.312500
vt 0.421875 0.312500
vt 0.437500 0.312500
vt 0.453125 0.312500
vt 0.468750 0.312500
vt 0.484375 0.312500
vt 0.500000 0.312500
vt 0.515625 0.312500
vt 0.531250 0.312500
vt 0.546875 0.312500
vt 0.562500 0.312500
vt 0.578125 0.312500
vt 0.593750 0.312500
vt 0.609375 0.312500
vt 0.625000 0.312500
vt 0.375000 0.688440
vt 0.390625 0.688440
vt 0.406250 0.688440
vt 0.421875 0.688440
vt 0.437500 0.688440
vt 0.453125 0.688440
vt 0.468750 0.688440
vt 0.484375 0.688440
vt 0.500000 0.688440
vt 0.515625 0.688440
vt 0.531250 0.688440
vt 0.546875 0.688440
vt 0.562500 0.688440
vt 0.578125 0.688440
vt 0.593750 0.688440
vt 0.609375 0.688440
vt 0.625000 0.688440
vt 0.644356 0.783956
vt 0.610485 0.733265
vt 0.559794 0.699394
vt 0.500000 0.687500
vt 0.440206 0.699394
vt 0.389515 0.733265
vt 0.355644 0.783956
vt 0.343750 0.843750
vt 0.355644 0.903544
vt 0.389515 0.954235
vt 0.440206 0.988106
vt 0.500000 1.000000
vt 0.559794 0.988106
vt 0.610485 0.954235
vt 0.644356 0.903544
vt 0.656250 0.843750
vt 0.500000 0.150000
vt 0.500000 0.837500
vt 0.644356 0.903544
vt 0.610485 0.954235
vt 0.559794 0.988106
vt 0.500000 1.000000
vt 0.440206 0.988106
vt 0.389515 0.954235
vt 0.355644 0.903544
vt 0.343750 0.843750
vt 0.355644 0.783956
vt 0.389515 0.733265
vt 0.440206 0.699394
vt 0.500000 0.687500
vt 0.559794 0.699394
vt 0.610485 0.733265
vt 0.644356 0.783956
vt 0.656250 0.843750
vt 0.644356 0.903544
vt 0.610485 0.954235
vt 0.559794 0.988106
vt 0.500000 1.000000
vt 0.440206 0.988106
vt 0.389515 0.954235
vt 0.355644 0.903544
vt 0.343750 0.843750
vt 0.355644 0.783956
vt 0.389515 0.733265
vt 0.440206 0.699394
vt 0.500000 0.687500
vt 0.559794 0.699394
vt 0.610485 0.733265
vt 0.644356 0.783956
vt 0.656250 0.843750
vt 0.644356 0.903544
vt 0.610485 0.954235
vt 0.559794 0.988106
vt 0.500000 1.000000
vt 0.440206 0.988106
vt 0.389515 0.954235
vt 0.355644 0.903544
vt 0.343750 0.843750
vt 0.355644 0.783956
vt 0.389515 0.733265
vt 0.440206 0.699394
vt 0.500000 0.687500
vt 0.559794 0.699394
vt 0.610485 0.733265
vt 0.644356 0.783956
vt 0.656250 0.843750
vt 0.644356 0.903544
vt 0.610485 0.954235
vt 0.610485 0.954235
vt 0.644356 0.903544
vt 0.559794 0.988106
vt 0.559794 0.988106
vt 0.500000 1.000000
vt 0.500000 1.000000
vt 0.440206 0.988106
vt 0.440206 0.988106
vt 0.389515 0.954235
vt 0.389515 0.954235
vt 0.355644 0.903544
vt 0.355644 0.903544
vt 0.343750 0.843750
vt 0.343750 0.843750
vt 0.355644 0.783956
vt 0.355644 0.783956
vt 0.389515 0.733265
vt 0.389515 0.733265
vt 0.440206 0.699394
vt 0.440206 0.699394
vt 0.500000 0.687500
vt 0.500000 0.687500
vt 0.559794 0.699394
vt 0.559794 0.699394
vt 0.610485 0.733265
vt 0.610485 0.733265
vt 0.644356 0.783956
vt 0.644356 0.783956
vt 0.656250 0.843750
vt 0.656250 0.843750
vn 0.923880 0.000000 -0.382683
vn 0.707107 0.000000 -0.707107
vn 0.704185 0.090821 -0.704184
vn 0.920062 0.090821 -0.381102
vn 0.382684 0.000000 -0.923879
vn 0.381102 0.090821 -0.920061
vn 0.000000 0.000000 -1.000000
vn 0.000000 0.090821 -0.995867
vn -0.382683 0.000000 -0.923880
vn -0.381101 0.090821 -0.920062
vn -0.707106 0.000000 -0.707107
vn -0.704184 0.090821 -0.704185
vn -0.923880 0.000000 -0.382684
vn -0.920061 0.090821 -0.381102
vn -1.000000 0.000000 -0.000000
vn -0.995867 0.090821 -0.000000
vn -0.923880 0.000000 0.382683
vn -0.920062 0.090821 0.381101
vn -0.707107 0.000000 0.707107
vn -0.704185 0.090821 0.704184
vn -0.382683 0.000000 0.923880
vn -0.381102 0.090821 0.920061
vn -0.000000 0.000000 1.000000
vn -0.000000 0.090821 0.995867
vn 0.382683 0.000000 0.923880
vn 0.381102 0.090821 0.920062
vn 0.707107 0.000000 0.707107
vn 0.704184 0.090821 0.704185
vn 0.923880 0.000000 0.382683
vn 0.920061 0.090821 0.381102
vn 1.000000 0.000000 0.000000
vn 0.995867 0.090821 0.000000
vn 0.000000 -1.000000 0.000000
vn 0.000000 -1.000000 0.000000
vn 0.000000 -1.000000 -0.000000
vn 0.000000 -1.000000 -0.000000
vn 0.000000 -1.000000 -0.000000
vn 0.000000 -1.000000 0.000000
vn 0.000000 -1.000000 0.000000
vn 0.000000 -1.000000 0.000000
vn 0.000000 -1.000000 0.000000
vn 0.000000 -1.000000 0.000000
vn 0.000000 -1.000000 0.000000
vn 0.000000 -1.000000 -0.000000
vn 0.000000 -1.000000 -0.000000
vn 0.000000 -1.000000 0.000000
vn 0.000000 -1.000000 0.000000
vn 0.000000 -1.000000 0.000000
vn 0.000000 -1.000000 0.000000
vn 0.000000 1.000000 -0.000002
vn 0.000000 1.000000 -0.000001
vn 0.000000 1.000000 0.000000
vn 0.000000 1.000000 -0.000000
vn 0.000000 1.000000 0.000001
vn 0.000000 1.000000 0.000001
vn 0.000000 1.000000 0.000000
vn 0.000000 1.000000 -0.000002
vn 0.000000 1.000000 -0.000000
vn 0.000000 1.000000 0.000002
vn 0.000000 1.000000 0.000001
vn 0.000000 1.000000 0.000000
vn 0.000000 1.000000 -0.000001
vn 0.000000 1.000000 -0.000000
vn 0.000000 1.000000 0.000000
vn 0.000000 1.000000 0.000002
vn 0.000000 1.000000 0.000000
vn 0.573399 0.585171 -0.573400
vn 0.749183 0.585171 -0.310321
vn 0.310322 0.585171 -0.749183
vn 0.000000 0.585172 -0.810910
vn -0.310321 0.585171 -0.749183
vn -0.573398 0.585171 -0.573401
vn -0.749183 0.585171 -0.310323
vn -0.810910 0.585171 -0.000000
vn -0.749183 0.585171 0.310321
vn -0.573399 0.585171 0.573400
vn -0.310322 0.585171 0.749183
vn -0.000000 0.585171 0.810910
vn 0.310322 0.585172 0.749183
vn 0.573399 0.585171 0.573400
vn 0.749183 0.585171 0.310322
vn 0.810910 0.585171 0.000000
vn 0.923880 0.000000 -0.382683
vn 0.707105 -0.000000 -0.707109
vn 0.707105 -0.000000 -0.707109
vn 0.923880 0.000000 -0.382682
vn 0.382683 -0.000001 -0.923880
vn 0.382683 -0.000001 -0.923880
vn -0.000000 -0.000000 -1.000000
vn -0.000000 -0.000000 -1.000000
vn -0.382684 0.000000 -0.923880
vn -0.382684 0.000000 -0.923880
vn -0.707104 0.000000 -0.707110
vn -0.707104 0.000000 -0.707110
vn -0.923879 0.000000 -0.382686
vn -0.923879 0.000000 -0.382686
vn -1.000000 0.000000 0.000000
vn -1.000000 0.000000 0.000000
vn -0.923880 0.000000 0.382682
vn -0.923880 0.000000 0.382682
vn -0.707105 0.000000 0.707109
vn -0.707105 0.000000 0.707109
vn -0.382683 0.000001 0.923880
vn -0.382683 0.000001 0.923880
vn -0.000000 0.000001 1.000000
vn -0.000000 0.000001 1.000000
vn 0.382684 0.000000 0.923879
vn 0.382684 0.000000 0.923879
vn 0.707105 0.000000 0.707109
vn 0.707105 0.000000 0.707109
vn 0.923879 0.000000 0.382685
vn 0.923879 0.000000 0.382685
vn 1.000000 0.000000 -0.000000
vn 1.000000 0.000000 -0.000000
vn 0.923880 0.000000 -0.382683
vn 0.707106 0.000000 -0.707108
vn 0.707106 0.000000 -0.707108
vn 0.923880 0.000000 -0.382683
vn 0.382682 0.000001 -0.923880
vn 0.382682 0.000001 -0.923880
vn -0.000001 0.000001 -1.000000
vn -0.000001 0.000001 -1.000000
vn -0.382682 0.000001 -0.923880
vn -0.382682 0.000001 -0.923880
vn -0.707104 -0.000000 -0.707110
vn -0.707104 -0.000000 -0.707110
vn -0.923879 -0.000000 -0.382685
vn -0.923879 -0.000000 -0.382685
vn -1.000000 -0.000000 -0.000000
vn -1.000000 -0.000000 -0.000000
vn -0.923880 -0.000000 0.382683
vn -0.923880 -0.000000 0.382683
vn -0.707105 -0.000001 0.707108
vn -0.707105 -0.000001 0.707108
vn -0.382682 -0.000000 0.923880
vn -0.382682 -0.000000 0.923880
vn 0.000000 0.000000 1.000000
vn 0.000000 0.000000 1.000000
vn 0.382682 0.000000 0.923880
vn 0.382682 0.000000 0.923880
vn 0.707105 -0.000001 0.707108
vn 0.707105 -0.000001 0.707108
vn 0.923879 -0.000001 0.382685
vn 0.923879 -0.000001 0.382685
vn 1.000000 -0.000000 0.000000
vn 1.000000 -0.000000 0.000000
vn 0.000000 -1.000000 0.000000
vn 0.000000 -1.000000 0.000000
vn 0.000000 -1.000000 0.000000
vn 0.000000 -1.000000 0.000000
vn 0.000000 1.000000 -0.000001
vn 0.000000 1.000000 -0.000002
vn 0.000000 -1.000000 -0.000001
vn 0.000000 -1.000000 -0.000001
vn 0.000000 1.000000 -0.000001
vn 0.000000 -1.000000 -0.000004
vn 0.000000 -1.000000 -0.000004
vn 0.000000 1.000000 0.000003
vn 0.000000 -1.000000 -0.000003
vn 0.000000 -1.000000 -0.000003
vn 0.000000 1.000000 0.000004
vn 0.000000 -1.000000 -0.000002
vn 0.000000 -1.000000 -0.000002
vn 0.000000 1.000000 -0.000000
vn 0.000000 -1.000000 -0.000002
vn 0.000000 -1.000000 -0.000002
vn 0.000000 1.000000 -0.000001
vn 0.000000 -1.000000 0.000000
vn 0.000000 -1.000000 0.000000
vn 0.000000 1.000000 0.000000
vn 0.000000 -1.000000 0.000000
vn 0.000000 -1.000000 0.000000
vn 0.000000 1.000000 0.000001
vn 0.000000 -1.000000 0.000000
vn 0.000000 -1.000000 0.000000
vn 0.000000 1.000000 -0.000000
vn 0.000000 -1.000000 -0.000000
vn 0.000000 -1.000000 -0.000000
vn 0.000000 1.000000 -0.000002
vn 0.000000 -1.000000 -0.000001
vn 0.000000 -1.000000 -0.000001
vn 0.000000 1.000000 -0.000002
vn 0.000000 -1.000000 0.000002
vn 0.000000 -1.000000 0.000002
vn 0.000000 1.000000 0.000000
vn 0.000000 -1.000000 0.000003
vn 0.000000 -1.000000 0.000003
vn 0.000000 1.000000 0.000002
vn 0.000000 -1.000000 -0.000001
vn 0.000000 -1.000000 -0.000001
vn 0.000000 1.000000 0.000001
vn 0.000000 -1.000000 -0.000001
vn 0.000000 -1.000000 -0.000001
vn 0.000000 1.000000 0.000000
s 1
g pCylinder2
usemtl initialShadingGroup
f 1/17/1 2/18/2 18/35/3 17/34/4
f 2/18/2 3/19/5 19/36/6 18/35/3
f 3/19/5 4/20/7 20/37/8 19/36/6
f 4/20/7 5/21/9 21/38/10 20/37/8
f 5/21/9 6/22/11 22/39/12 21/38/10
f 6/22/11 7/23/13 23/40/14 22/39/12
f 7/23/13 8/24/15 24/41/16 23/40/14
f 8/24/15 9/25/17 25/42/18 24/41/16
f 9/25/17 10/26/19 26/43/20 25/42/18
f 10/26/19 11/27/21 27/44/22 26/43/20
f 11/27/21 12/28/23 28/45/24 27/44/22
f 12/28/23 13/29/25 29/46/26 28/45/24
f 13/29/25 14/30/27 30/47/28 29/46/26
f 14/30/27 15/31/29 31/48/30 30/47/28
f 15/31/29 16/32/31 32/49/32 31/48/30
f 16/32/31 1/33/1 17/50/4 32/49/32
s 2
f 2/2/33 1/1/34 33/67/35
f 3/3/36 2/2/33 33/67/35
f 4/4/37 3/3/36 33/67/35
f 5/5/38 4/4/37 33/67/35
f 6/6/39 5/5/38 33/67/35
f 7/7/40 6/6/39 33/67/35
f 8/8/41 7/7/40 33/67/35
f 9/9/42 8/8/41 33/67/35
f 10/10/43 9/9/42 33/67/35
f 11/11/44 10/10/43 33/67/35
f 12/12/45 11/11/44 33/67/35
f 13/13/46 12/12/45 33/67/35
f 14/14/47 13/13/46 33/67/35
f 15/15/48 14/14/47 33/67/35
f 16/16/49 15/15/48 33/67/35
f 1/1/34 16/16/49 33/67/35
s 3
f 66/101/50 67/102/51 68/68/52
f 67/102/51 69/103/53 68/68/52
f 69/103/53 70/104/54 68/68/52
f 70/104/54 71/105/55 68/68/52
f 71/105/55 72/106/56 68/68/52
f 72/106/56 73/107/57 68/68/52
f 73/107/57 74/108/58 68/68/52
f 74/108/58 75/109/59 68/68/52
f 75/109/59 76/110/60 68/68/52
f 76/110/60 77/111/61 68/68/52
f 77/111/61 78/112/62 68/68/52
f 78/112/62 79/113/63 68/68/52
f 79/113/63 80/114/64 68/68/52
f 80/114/64 81/115/65 68/68/52
f 81/115/65 82/116/66 68/68/52
f 82/116/66 66/101/50 68/68/52
s 1
f 17/65/4 18/64/3 35/70/67 34/69/68
f 18/64/3 19/63/6 36/71/69 35/70/67
f 19/63/6 20/62/8 37/72/70 36/71/69
f 20/62/8 21/61/10 38/73/71 37/72/70
f 21/61/10 22/60/12 39/74/72 38/73/71
f 22/60/12 23/59/14 40/75/73 39/74/72
f 23/59/14 24/58/16 41/76/74 40/75/73
f 24/58/16 25/57/18 42/77/75 41/76/74
f 25/57/18 26/56/20 43/78/76 42/77/75
f 26/56/20 27/55/22 44/79/77 43/78/76
f 27/55/22 28/54/24 45/80/78 44/79/77
f 28/54/24 29/53/26 46/81/79 45/80/78
f 29/53/26 30/52/28 47/82/80 46/81/79
f 30/52/28 31/51/30 48/83/81 47/82/80
f 31/51/30 32/66/32 49/84/82 48/83/81
f 32/66/32 17/65/4 34/69/68 49/84/82
s 4
f 34/69/83 35/70/84 51/86/85 50/85/86
f 35/70/84 36/71/87 52/87/88 51/86/85
f 36/71/87 37/72/89 53/88/90 52/87/88
f 37/72/89 38/73/91 54/89/92 53/88/90
f 38/73/91 39/74/93 55/90/94 54/89/92
f 39/74/93 40/75/95 56/91/96 55/90/94
f 40/75/95 41/76/97 57/92/98 56/91/96
f 41/76/97 42/77/99 58/93/100 57/92/98
f 42/77/99 43/78/101 59/94/102 58/93/100
f 43/78/101 44/79/103 60/95/104 59/94/102
f 44/79/103 45/80/105 61/96/106 60/95/104
f 45/80/105 46/81/107 62/97/108 61/96/106
f 46/81/107 47/82/109 63/98/110 62/97/108
f 47/82/109 48/83/111 64/99/112 63/98/110
f 48/83/111 49/84/113 65/100/114 64/99/112
f 49/84/113 34/69/83 50/85/86 65/100/114
s 5
f 83/117/115 84/118/116 85/119/117 86/120/118
f 84/118/116 87/121/119 88/122/120 85/119/117
f 87/121/119 89/123/121 90/124/122 88/122/120
f 89/123/121 91/125/123 92/126/124 90/124/122
f 91/125/123 93/127/125 94/128/126 92/126/124
f 93/127/125 95/129/127 96/130/128 94/128/126
f 95/129/127 97/131/129 98/132/130 96/130/128
f 97/131/129 99/133/131 100/134/132 98/132/130
f 99/133/131 101/135/133 102/136/134 100/134/132
f 101/135/133 103/137/135 104/138/136 102/136/134
f 103/137/135 105/139/137 106/140/138 104/138/136
f 105/139/137 107/141/139 108/142/140 106/140/138
f 107/141/139 109/143/141 110/144/142 108/142/140
f 109/143/141 111/145/143 112/146/144 110/144/142
f 111/145/143 113/147/145 114/148/146 112/146/144
f 113/147/145 83/117/115 86/120/118 114/148/146
s 6
f 50/85/147 51/86/148 84/118/149 83/117/150
s 3
f 67/102/51 66/101/50 86/120/151 85/119/152
s 6
f 51/86/148 52/87/153 87/121/154 84/118/149
s 3
f 69/103/53 67/102/51 85/119/152 88/122/155
s 6
f 52/87/153 53/88/156 89/123/157 87/121/154
s 3
f 70/104/54 69/103/53 88/122/155 90/124/158
s 6
f 53/88/156 54/89/159 91/125/160 89/123/157
s 3
f 71/105/55 70/104/54 90/124/158 92/126/161
s 6
f 54/89/159 55/90/162 93/127/163 91/125/160
s 3
f 72/106/56 71/105/55 92/126/161 94/128/164
s 6
f 55/90/162 56/91/165 95/129/166 93/127/163
s 3
f 73/107/57 72/106/56 94/128/164 96/130/167
s 6
f 56/91/165 57/92/168 97/131/169 95/129/166
s 3
f 74/108/58 73/107/57 96/130/167 98/132/170
s 6
f 57/92/168 58/93/171 99/133/172 97/131/169
s 3
f 75/109/59 74/108/58 98/132/170 100/134/173
s 6
f 58/93/171 59/94/174 101/135/175 99/133/172
s 3
f 76/110/60 75/109/59 100/134/173 102/136/176
s 6
f 59/94/174 60/95/177 103/137/178 101/135/175
s 3
f 77/111/61 76/110/60 102/136/176 104/138/179
s 6
f 60/95/177 61/96/180 105/139/181 103/137/178
s 3
f 78/112/62 77/111/61 104/138/179 106/140/182
s 6
f 61/96/180 62/97/183 107/141/184 105/139/181
s 3
f 79/113/63 78/112/62 106/140/182 108/142/185
s 6
f 62/97/183 63/98/186 109/143/187 107/141/184
s 3
f 80/114/64 79/113/63 108/142/185 110/144/188
s 6
f 63/98/186 64/99/189 111/145/190 109/143/187
s 3
f 81/115/65 80/114/64 110/144/188 112/146/191
s 6
f 64/99/189 65/100/192 113/147/193 111/145/190
s 3
f 82/116/66 81/115/65 112/146/191 114/148/194
s 6
f 65/100/192 50/85/147 83/117/150 113/147/193
s 3
f 66/101/50 82/116/66 114/148/194 86/120/151
