# This file uses centimeters as units for non-parametric coordinates.

mtllib brokenbottle.mtl
g default
v 5.661856 10.903667 5.518554
v 4.333398 11.832117 7.276632
v 2.345220 12.452490 8.451344
v 0.000003 12.670336 8.863846
v -2.345214 12.452490 8.451344
v -4.333394 11.832121 7.276636
v -5.661853 10.903669 5.518559
v -6.128346 9.808489 3.444766
v -5.661854 8.713306 1.370972
v -4.333397 7.784855 -0.387105
v -2.345218 7.164484 -1.561815
v -0.000001 6.946638 -1.974319
v 2.345216 7.164484 -1.561816
v 4.333395 7.784855 -0.387107
v 5.661854 8.713305 1.370970
v 6.128346 9.808487 3.444764
v 2.310274 5.810005 6.638574
v 1.768205 6.188852 7.355943
v 0.956947 6.441986 7.835268
v 0.000001 6.530878 8.003592
v -0.956944 6.441986 7.835268
v -1.768200 6.188852 7.355944
v -2.310274 5.810007 6.638577
v -2.500617 5.363127 5.792385
v -2.310274 4.916248 4.946189
v -1.768205 4.537401 4.228821
v -0.956945 4.284267 3.749496
v -0.000000 4.195375 3.581173
v 0.956947 4.284267 3.749496
v 1.768200 4.537401 4.228821
v 2.310274 4.916246 4.946189
v 2.500617 5.363127 5.792383
v 2.310274 5.141094 6.991829
v 1.768205 5.519941 7.709199
v 0.956947 5.773075 8.188526
v 0.000001 5.861967 8.356848
v -0.956944 5.773075 8.188524
v -1.768200 5.519941 7.709200
v -2.310274 5.141096 6.991833
v -2.500617 4.694216 6.145641
v -2.310274 4.247337 5.299446
v -1.768205 3.868490 4.582078
v -0.956945 3.615356 4.102753
v -0.000000 3.526464 3.934431
v 0.956947 3.615356 4.102752
v 1.768200 3.868490 4.582078
v 2.310274 4.247335 5.299446
v 2.500617 4.694216 6.145639
v 2.310274 3.242537 7.994468
v 1.768205 3.621384 8.711838
v 0.000000 2.795658 7.148277
v 0.956947 3.874517 9.191164
v 0.000001 3.963408 9.359484
v -0.956944 3.874516 9.191162
v -1.768200 3.621384 8.711842
v -2.310274 3.242540 7.994475
v -2.500617 2.795658 7.148280
v -2.310274 2.348780 6.302084
v -1.768205 1.969931 5.584713
v -0.956945 1.716797 5.105390
v -0.000000 1.627907 4.937071
v 0.956947 1.716799 5.105392
v 1.768200 1.969931 5.584713
v 2.310274 2.348778 6.302082
v 2.500617 2.795658 7.148278
v 2.761182 5.228313 7.156986
v 2.113314 5.681103 8.014368
v 2.113314 3.782545 9.017008
v 2.761182 3.329756 8.159624
v 1.143720 5.983643 8.587248
v 1.143720 4.085085 9.589886
v 0.000001 6.089884 8.788422
v 0.000001 4.191324 9.791058
v -1.143717 5.983643 8.587248
v -1.143717 4.085085 9.589884
v -2.113308 5.681105 8.014372
v -2.113308 3.782547 9.017012
v -2.761181 5.228315 7.156990
v -2.761181 3.329760 8.159632
v -2.988677 4.694216 6.145641
v -2.988677 2.795658 7.148280
v -2.761182 4.160116 5.134290
v -2.761182 2.261559 6.136930
v -2.113313 3.707329 4.276907
v -2.113313 1.808769 5.279543
v -1.143717 3.404789 3.704030
v -1.143717 1.506229 4.706666
v -0.000000 3.298548 3.502857
v -0.000000 1.399990 4.505497
v 1.143720 3.404789 3.704030
v 1.143720 1.506231 4.706669
v 2.113308 3.707327 4.276906
v 2.113308 1.808769 5.279543
v 2.761181 4.160116 5.134289
v 2.761181 2.261557 6.136925
v 2.988677 4.694216 6.145639
v 2.988677 2.795658 7.148278
v 6.128345 22.562029 -3.290454
v 5.661855 18.949734 -4.034946
v 4.333395 23.421211 -8.644756
v 2.345216 22.193586 -9.498771
v -0.000001 22.599701 -10.240789
v -2.345218 19.889647 -8.282045
v -4.333397 19.179459 -6.404661
v -5.661854 20.186085 -4.687868
v -6.128346 21.277605 -2.612141
v -5.661853 20.409809 0.498312
v -4.333394 21.099264 2.382604
v -2.345214 22.280861 3.260925
v 0.000003 23.771481 3.001267
v 2.345220 21.479813 3.683961
v 4.333398 17.667196 4.195094
v 5.661856 25.447620 -2.162190
vt 0.375000 0.688440
vt 0.390625 0.688440
vt 0.406250 0.688440
vt 0.421875 0.688440
vt 0.437500 0.688440
vt 0.453125 0.688440
vt 0.468750 0.688440
vt 0.484375 0.688440
vt 0.500000 0.688440
vt 0.515625 0.688440
vt 0.531250 0.688440
vt 0.546875 0.688440
vt 0.562500 0.688440
vt 0.578125 0.688440
vt 0.593750 0.688440
vt 0.609375 0.688440
vt 0.625000 0.688440
vt 0.644356 0.783956
vt 0.610485 0.733265
vt 0.559794 0.699394
vt 0.500000 0.687500
vt 0.440206 0.699394
vt 0.389515 0.733265
vt 0.355644 0.783956
vt 0.343750 0.843750
vt 0.355644 0.903544
vt 0.389515 0.954235
vt 0.440206 0.988106
vt 0.500000 1.000000
vt 0.559794 0.988106
vt 0.610485 0.954235
vt 0.644356 0.903544
vt 0.656250 0.843750
vt 0.500000 0.837500
vt 0.644356 0.903544
vt 0.610485 0.954235
vt 0.559794 0.988106
vt 0.500000 1.000000
vt 0.440206 0.988106
vt 0.389515 0.954235
vt 0.355644 0.903544
vt 0.343750 0.843750
vt 0.355644 0.783956
vt 0.389515 0.733265
vt 0.440206 0.699394
vt 0.500000 0.687500
vt 0.559794 0.699394
vt 0.610485 0.733265
vt 0.644356 0.783956
vt 0.656250 0.843750
vt 0.644356 0.903544
vt 0.610485 0.954235
vt 0.559794 0.988106
vt 0.500000 1.000000
vt 0.440206 0.988106
vt 0.389515 0.954235
vt 0.355644 0.903544
vt 0.343750 0.843750
vt 0.355644 0.783956
vt 0.389515 0.733265
vt 0.440206 0.699394
vt 0.500000 0.687500
vt 0.559794 0.699394
vt 0.610485 0.733265
vt 0.644356 0.783956
vt 0.656250 0.843750
vt 0.644356 0.903544
vt 0.610485 0.954235
vt 0.559794 0.988106
vt 0.500000 1.000000
vt 0.440206 0.988106
vt 0.389515 0.954235
vt 0.355644 0.903544
vt 0.343750 0.843750
vt 0.355644 0.783956
vt 0.389515 0.733265
vt 0.440206 0.699394
vt 0.500000 0.687500
vt 0.559794 0.699394
vt 0.610485 0.733265
vt 0.644356 0.783956
vt 0.656250 0.843750
vt 0.644356 0.903544
vt 0.610485 0.954235
vt 0.610485 0.954235
vt 0.644356 0.903544
vt 0.559794 0.988106
vt 0.559794 0.988106
vt 0.500000 1.000000
vt 0.500000 1.000000
vt 0.440206 0.988106
vt 0.440206 0.988106
vt 0.389515 0.954235
vt 0.389515 0.954235
vt 0.355644 0.903544
vt 0.355644 0.903544
vt 0.343750 0.843750
vt 0.343750 0.843750
vt 0.355644 0.783956
vt 0.355644 0.783956
vt 0.389515 0.733265
vt 0.389515 0.733265
vt 0.440206 0.699394
vt 0.440206 0.699394
vt 0.500000 0.687500
vt 0.500000 0.687500
vt 0.559794 0.699394
vt 0.559794 0.699394
vt 0.610485 0.733265
vt 0.610485 0.733265
vt 0.644356 0.783956
vt 0.644356 0.783956
vt 0.656250 0.843750
vt 0.656250 0.843750
vt 0.609375 0.449412
vt 0.593750 0.496588
vt 0.578125 0.395381
vt 0.562500 0.406763
vt 0.546875 0.395068
vt 0.531250 0.449943
vt 0.515625 0.474881
vt 0.500000 0.473416
vt 0.484375 0.473484
vt 0.468750 0.510275
vt 0.453125 0.514754
vt 0.437500 0.504235
vt 0.421875 0.480381
vt 0.406250 0.519249
vt 0.390625 0.579078
vt 0.625000 0.415855
vt 0.375000 0.415855
vn -0.000000 -0.884265 0.466986
vn 0.000000 -0.884265 0.466985
vn 0.000000 -0.884265 0.466985
vn 0.000001 -0.884265 0.466985
vn 0.000000 -0.884265 0.466985
vn -0.000000 -0.884265 0.466986
vn -0.000001 -0.884265 0.466985
vn -0.000000 -0.884265 0.466985
vn 0.000001 -0.884265 0.466985
vn 0.000001 -0.884265 0.466985
vn -0.000000 -0.884265 0.466986
vn -0.000000 -0.884265 0.466985
vn 0.000000 -0.884265 0.466986
vn 0.000000 -0.884265 0.466985
vn -0.000000 -0.884265 0.466986
vn -0.000000 -0.884265 0.466985
vn -0.000000 -0.884265 0.466985
vn 0.923347 0.043320 0.381515
vn 0.712185 0.161773 0.683097
vn 0.573399 -0.249677 0.780304
vn 0.749183 -0.372531 0.547673
vn 0.356120 0.272085 0.893951
vn 0.310322 -0.167589 0.935743
vn -0.002988 0.322302 0.946632
vn -0.000000 -0.138764 0.990326
vn -0.371292 0.285517 0.883528
vn -0.310322 -0.167589 0.935743
vn -0.696283 0.178402 0.695243
vn -0.573399 -0.249677 0.780305
vn -0.915021 0.030408 0.402259
vn -0.749183 -0.372530 0.547674
vn -0.988789 -0.135147 0.063494
vn -0.810910 -0.517446 0.273266
vn -0.914302 -0.304368 -0.267231
vn -0.749183 -0.662362 -0.001140
vn -0.697009 -0.453400 -0.555523
vn -0.573399 -0.785216 -0.233771
vn -0.367322 -0.544658 -0.753938
vn -0.310322 -0.867304 -0.389210
vn 0.006440 -0.567805 -0.823138
vn -0.000000 -0.896130 -0.443792
vn 0.380144 -0.529488 -0.758375
vn 0.310322 -0.867304 -0.389210
vn 0.691940 -0.440158 -0.572259
vn 0.573399 -0.785216 -0.233772
vn 0.911508 -0.302379 -0.278784
vn 0.749183 -0.662362 -0.001141
vn 0.990875 -0.112163 0.074746
vn 0.810910 -0.517446 0.273266
vn 0.923880 0.178707 0.338393
vn 0.707105 0.330210 0.625271
vn 0.707105 0.330210 0.625271
vn 0.923880 0.178707 0.338393
vn 0.382684 0.431440 0.816953
vn 0.382683 0.431440 0.816954
vn -0.000000 0.466987 0.884264
vn -0.000000 0.466987 0.884264
vn -0.382684 0.431439 0.816954
vn -0.382684 0.431439 0.816954
vn -0.707104 0.330211 0.625272
vn -0.707104 0.330211 0.625272
vn -0.923879 0.178709 0.338395
vn -0.923879 0.178709 0.338395
vn -1.000000 -0.000000 -0.000000
vn -1.000000 0.000000 0.000000
vn -0.923880 -0.178707 -0.338392
vn -0.923880 -0.178707 -0.338392
vn -0.707104 -0.330210 -0.625272
vn -0.707104 -0.330210 -0.625272
vn -0.382683 -0.431440 -0.816954
vn -0.382683 -0.431440 -0.816954
vn -0.000000 -0.466987 -0.884264
vn -0.000000 -0.466987 -0.884264
vn 0.382684 -0.431439 -0.816954
vn 0.382684 -0.431439 -0.816954
vn 0.707105 -0.330210 -0.625271
vn 0.707105 -0.330210 -0.625271
vn 0.923879 -0.178708 -0.338395
vn 0.923879 -0.178708 -0.338395
vn 1.000000 -0.000000 0.000000
vn 1.000000 0.000000 0.000000
vn 0.923880 0.178707 0.338393
vn 0.707106 0.330209 0.625270
vn 0.707106 0.330209 0.625270
vn 0.923880 0.178707 0.338393
vn 0.382683 0.431438 0.816955
vn 0.382683 0.431438 0.816955
vn -0.000000 0.466984 0.884266
vn -0.000000 0.466984 0.884266
vn -0.382682 0.431438 0.816955
vn -0.382682 0.431438 0.816955
vn -0.707104 0.330210 0.625272
vn -0.707104 0.330210 0.625272
vn -0.923879 0.178709 0.338395
vn -0.923879 0.178709 0.338395
vn -1.000000 0.000000 0.000000
vn -1.000000 0.000000 0.000000
vn -0.923880 -0.178707 -0.338393
vn -0.923880 -0.178707 -0.338393
vn -0.707105 -0.330208 -0.625271
vn -0.707105 -0.330209 -0.625272
vn -0.382682 -0.431438 -0.816955
vn -0.382682 -0.431438 -0.816955
vn 0.000001 -0.466985 -0.884265
vn 0.000001 -0.466985 -0.884265
vn 0.382682 -0.431439 -0.816955
vn 0.382682 -0.431439 -0.816955
vn 0.707105 -0.330209 -0.625272
vn 0.707105 -0.330209 -0.625272
vn 0.923879 -0.178708 -0.338395
vn 0.923879 -0.178708 -0.338395
vn 1.000000 -0.000000 -0.000000
vn 1.000000 -0.000000 -0.000000
vn 0.000001 0.884265 -0.466986
vn 0.000000 0.884265 -0.466985
vn 0.000000 0.884265 -0.466986
vn 0.000001 0.884265 -0.466986
vn -0.000001 -0.884265 0.466985
vn -0.000000 -0.884265 0.466985
vn -0.000000 0.884265 -0.466985
vn -0.000000 0.884265 -0.466985
vn 0.000001 -0.884265 0.466985
vn 0.000000 0.884265 -0.466985
vn -0.000000 0.884265 -0.466985
vn -0.000000 -0.884265 0.466986
vn 0.000000 0.884265 -0.466985
vn 0.000000 0.884265 -0.466985
vn -0.000001 -0.884264 0.466988
vn -0.000000 0.884265 -0.466985
vn -0.000000 0.884265 -0.466985
vn -0.000001 -0.884265 0.466986
vn -0.000001 0.884265 -0.466986
vn -0.000001 0.884265 -0.466986
vn 0.000000 -0.884265 0.466986
vn -0.000001 0.884265 -0.466985
vn -0.000001 0.884265 -0.466985
vn 0.000001 -0.884265 0.466986
vn -0.000001 0.884265 -0.466985
vn -0.000001 0.884265 -0.466985
vn 0.000002 -0.884265 0.466985
vn 0.000000 0.884265 -0.466985
vn 0.000000 0.884265 -0.466985
vn 0.000000 -0.884265 0.466985
vn 0.000000 0.884266 -0.466985
vn 0.000000 0.884265 -0.466985
vn -0.000001 -0.884265 0.466985
vn -0.000000 0.884265 -0.466985
vn -0.000000 0.884265 -0.466985
vn 0.000000 -0.884265 0.466985
vn 0.000000 0.884265 -0.466985
vn 0.000000 0.884265 -0.466985
vn 0.000000 -0.884265 0.466985
vn 0.000001 0.884265 -0.466985
vn 0.000001 0.884265 -0.466985
vn -0.000000 -0.884265 0.466985
vn -0.000000 0.884265 -0.466986
vn -0.000000 0.884265 -0.466986
vn -0.000001 -0.884265 0.466986
vn -0.000000 0.884265 -0.466986
vn -0.000000 0.884265 -0.466986
vn -0.000001 -0.884265 0.466986
vn 0.914404 -0.189037 -0.357953
vn 0.993212 0.054320 0.102858
vn 0.617114 -0.367459 -0.695805
vn 0.382272 -0.431518 -0.817105
vn 0.075125 -0.465666 -0.881766
vn -0.290961 -0.446781 -0.846007
vn -0.683340 -0.340946 -0.645603
vn -0.924865 -0.177593 -0.336283
vn -0.997544 -0.032707 -0.061933
vn -0.943715 0.154460 0.292480
vn -0.699997 0.333496 0.631494
vn -0.331299 0.440613 0.834327
vn -0.029296 0.466785 0.883886
vn 0.253682 0.451709 0.855339
vn 0.737063 0.315600 0.597608
vn 0.965832 0.121028 0.229173
s 1
g pCylinder2
usemtl initialShadingGroup
f 49/67/1 50/68/2 51/34/3
f 50/68/2 52/69/4 51/34/3
f 52/69/4 53/70/5 51/34/3
f 53/70/5 54/71/6 51/34/3
f 54/71/6 55/72/7 51/34/3
f 55/72/7 56/73/8 51/34/3
f 56/73/8 57/74/9 51/34/3
f 57/74/9 58/75/10 51/34/3
f 58/75/10 59/76/11 51/34/3
f 59/76/11 60/77/12 51/34/3
f 60/77/12 61/78/13 51/34/3
f 61/78/13 62/79/14 51/34/3
f 62/79/14 63/80/15 51/34/3
f 63/80/15 64/81/16 51/34/3
f 64/81/16 65/82/17 51/34/3
f 65/82/17 49/67/1 51/34/3
s 2
f 1/32/18 2/31/19 18/36/20 17/35/21
f 2/31/19 3/30/22 19/37/23 18/36/20
f 3/30/22 4/29/24 20/38/25 19/37/23
f 4/29/24 5/28/26 21/39/27 20/38/25
f 5/28/26 6/27/28 22/40/29 21/39/27
f 6/27/28 7/26/30 23/41/31 22/40/29
f 7/26/30 8/25/32 24/42/33 23/41/31
f 8/25/32 9/24/34 25/43/35 24/42/33
f 9/24/34 10/23/36 26/44/37 25/43/35
f 10/23/36 11/22/38 27/45/39 26/44/37
f 11/22/38 12/21/40 28/46/41 27/45/39
f 12/21/40 13/20/42 29/47/43 28/46/41
f 13/20/42 14/19/44 30/48/45 29/47/43
f 14/19/44 15/18/46 31/49/47 30/48/45
f 15/18/46 16/33/48 32/50/49 31/49/47
f 16/33/48 1/32/18 17/35/21 32/50/49
s 3
f 17/35/50 18/36/51 34/52/52 33/51/53
f 18/36/51 19/37/54 35/53/55 34/52/52
f 19/37/54 20/38/56 36/54/57 35/53/55
f 20/38/56 21/39/58 37/55/59 36/54/57
f 21/39/58 22/40/60 38/56/61 37/55/59
f 22/40/60 23/41/62 39/57/63 38/56/61
f 23/41/62 24/42/64 40/58/65 39/57/63
f 24/42/64 25/43/66 41/59/67 40/58/65
f 25/43/66 26/44/68 42/60/69 41/59/67
f 26/44/68 27/45/70 43/61/71 42/60/69
f 27/45/70 28/46/72 44/62/73 43/61/71
f 28/46/72 29/47/74 45/63/75 44/62/73
f 29/47/74 30/48/76 46/64/77 45/63/75
f 30/48/76 31/49/78 47/65/79 46/64/77
f 31/49/78 32/50/80 48/66/81 47/65/79
f 32/50/80 17/35/50 33/51/53 48/66/81
s 4
f 66/83/82 67/84/83 68/85/84 69/86/85
f 67/84/83 70/87/86 71/88/87 68/85/84
f 70/87/86 72/89/88 73/90/89 71/88/87
f 72/89/88 74/91/90 75/92/91 73/90/89
f 74/91/90 76/93/92 77/94/93 75/92/91
f 76/93/92 78/95/94 79/96/95 77/94/93
f 78/95/94 80/97/96 81/98/97 79/96/95
f 80/97/96 82/99/98 83/100/99 81/98/97
f 82/99/98 84/101/100 85/102/101 83/100/99
f 84/101/100 86/103/102 87/104/103 85/102/101
f 86/103/102 88/105/104 89/106/105 87/104/103
f 88/105/104 90/107/106 91/108/107 89/106/105
f 90/107/106 92/109/108 93/110/109 91/108/107
f 92/109/108 94/111/110 95/112/111 93/110/109
f 94/111/110 96/113/112 97/114/113 95/112/111
f 96/113/112 66/83/82 69/86/85 97/114/113
s 5
f 33/51/114 34/52/115 67/84/116 66/83/117
s 1
f 50/68/2 49/67/1 69/86/118 68/85/119
s 5
f 34/52/115 35/53/120 70/87/121 67/84/116
s 1
f 52/69/4 50/68/2 68/85/119 71/88/122
s 5
f 35/53/120 36/54/123 72/89/124 70/87/121
s 1
f 53/70/5 52/69/4 71/88/122 73/90/125
s 5
f 36/54/123 37/55/126 74/91/127 72/89/124
s 1
f 54/71/6 53/70/5 73/90/125 75/92/128
s 5
f 37/55/126 38/56/129 76/93/130 74/91/127
s 1
f 55/72/7 54/71/6 75/92/128 77/94/131
s 5
f 38/56/129 39/57/132 78/95/133 76/93/130
s 1
f 56/73/8 55/72/7 77/94/131 79/96/134
s 5
f 39/57/132 40/58/135 80/97/136 78/95/133
s 1
f 57/74/9 56/73/8 79/96/134 81/98/137
s 5
f 40/58/135 41/59/138 82/99/139 80/97/136
s 1
f 58/75/10 57/74/9 81/98/137 83/100/140
s 5
f 41/59/138 42/60/141 84/101/142 82/99/139
s 1
f 59/76/11 58/75/10 83/100/140 85/102/143
s 5
f 42/60/141 43/61/144 86/103/145 84/101/142
s 1
f 60/77/12 59/76/11 85/102/143 87/104/146
s 5
f 43/61/144 44/62/147 88/105/148 86/103/145
s 1
f 61/78/13 60/77/12 87/104/146 89/106/149
s 5
f 44/62/147 45/63/150 90/107/151 88/105/148
s 1
f 62/79/14 61/78/13 89/106/149 91/108/152
s 5
f 45/63/150 46/64/153 92/109/154 90/107/151
s 1
f 63/80/15 62/79/14 91/108/152 93/110/155
s 5
f 46/64/153 47/65/156 94/111/157 92/109/154
s 1
f 64/81/16 63/80/15 93/110/155 95/112/158
s 5
f 47/65/156 48/66/159 96/113/160 94/111/157
s 1
f 65/82/17 64/81/16 95/112/158 97/114/161
s 5
f 48/66/159 33/51/114 66/83/117 96/113/160
s 1
f 49/67/1 65/82/17 97/114/161 69/86/118
s 2
f 99/116/162 98/115/163 16/16/48 15/15/46
f 100/117/164 99/116/162 15/15/46 14/14/44
f 101/118/165 100/117/164 14/14/44 13/13/42
f 102/119/166 101/118/165 13/13/42 12/12/40
f 103/120/167 102/119/166 12/12/40 11/11/38
f 104/121/168 103/120/167 11/11/38 10/10/36
f 105/122/169 104/121/168 10/10/36 9/9/34
f 106/123/170 105/122/169 9/9/34 8/8/32
f 107/124/171 106/123/170 8/8/32 7/7/30
f 108/125/172 107/124/171 7/7/30 6/6/28
f 109/126/173 108/125/172 6/6/28 5/5/26
f 110/127/174 109/126/173 5/5/26 4/4/24
f 111/128/175 110/127/174 4/4/24 3/3/22
f 112/129/176 111/128/175 3/3/22 2/2/19
f 113/131/177 112/129/176 2/2/19 1/1/18
f 98/115/163 113/130/177 1/17/18 16/16/48
