# This file uses centimeters as units for non-parametric coordinates.

mtllib desk.mtl
g default
v 2.719825 9.756315 -100.064171
v 2.719825 9.756315 -106.355225
v 2.719825 15.693685 -100.064171
v 2.719825 15.693685 -106.355225
v -6.613878 15.693685 -100.064171
v -6.613878 15.693685 -106.355225
v -6.613878 9.756315 -100.064171
v -6.613878 9.756315 -106.355225
v 2.719825 14.956618 -100.064171
v -6.613878 14.956618 -100.064171
v -6.613878 14.956618 -106.355225
v 2.719825 14.956618 -106.355225
v 3.998438 14.956618 -99.356827
v -7.892492 14.956618 -99.356827
v 3.998438 15.693685 -99.356827
v -7.892492 15.693685 -99.356827
v -7.892492 15.693685 -106.355217
v -7.892492 14.956618 -106.355217
v 3.998438 14.956618 -106.355217
v 3.998438 15.693685 -106.355217
v -4.012884 9.756315 -100.064171
v -4.012884 14.956618 -100.064171
v -4.578884 14.956618 -99.356827
v -4.578884 15.693685 -99.356827
v -4.012884 15.693685 -100.064171
v -4.012884 15.693685 -106.355225
v -0.170496 9.756315 -100.064171
v -0.170496 14.956618 -100.064171
v 0.316236 14.956618 -99.356827
v 0.316236 15.693685 -99.356827
v -0.170496 15.693685 -100.064171
v -0.170496 15.693685 -106.355225
v -3.710142 10.257727 -100.064171
v -3.710142 14.455202 -100.064171
v -0.473236 10.257727 -100.064171
v -0.473236 14.455202 -100.064171
v 2.719825 12.939049 -106.355225
v 2.719825 12.939049 -100.064171
v -0.170496 12.939049 -100.064171
v -0.473236 12.939028 -100.064171
v -3.710142 12.939028 -100.064171
v -4.012884 12.939049 -100.064171
v -6.613878 12.939049 -100.064171
v -6.613878 12.939049 -106.355225
v 2.719825 12.614366 -106.355225
v 2.719825 12.614366 -100.064171
v -0.170496 12.614366 -100.064171
v -0.473236 12.613012 -100.064171
v -3.710142 12.613012 -100.064171
v -4.012884 12.614366 -100.064171
v -6.613878 12.614366 -100.064171
v -6.613878 12.614366 -106.355225
v 2.719825 11.055163 -106.355225
v 2.719825 11.055163 -100.064171
v -0.170496 11.055163 -100.064171
v -0.473236 11.055163 -100.064171
v -3.710142 11.055163 -100.064171
v -4.012884 11.055163 -100.064171
v -6.613878 11.055163 -100.064171
v -6.613878 11.055163 -106.355225
v -3.710142 12.939028 -103.180855
v -3.710142 14.455202 -103.180855
v -0.473236 12.939028 -103.180855
v -0.473236 14.455202 -103.180855
v -3.710142 11.055163 -103.180855
v -3.710142 12.613012 -103.180855
v -0.473236 11.055163 -103.180855
v -0.473236 12.613012 -103.180855
v -6.322937 9.885557 -99.807510
v -4.303820 9.885557 -99.807510
v -4.303820 11.068119 -99.807510
v -6.322937 11.068119 -99.807510
v -4.303820 13.023275 -99.807510
v -6.322937 13.023275 -99.807510
v -4.303820 14.755857 -99.807510
v -6.322937 14.755857 -99.807510
v -4.303820 12.552948 -99.807510
v -6.322937 12.552948 -99.807510
v 0.152809 9.885557 -99.807510
v 0.152809 11.068119 -99.807510
v 2.396527 9.885557 -99.807510
v 2.396527 11.068119 -99.807510
v 0.152809 13.023275 -99.807510
v 0.152809 14.755857 -99.807510
v 2.396527 13.023275 -99.807510
v 2.396527 14.755857 -99.807510
v 0.152809 12.552948 -99.807510
v 2.396527 12.552948 -99.807510
vt 0.540193 0.531083
vt 0.537973 0.635549
vt 0.515528 0.635549
vt 0.517663 0.531083
vt 0.275975 0.531083
vt 0.275179 0.635549
vt 0.230234 0.635549
vt 0.230944 0.531083
vt 0.106251 0.531083
vt 0.105500 0.635549
vt 0.083013 0.635549
vt 0.083753 0.531083
vt 0.234654 0.401347
vt 0.269629 0.401052
vt 0.269686 0.421594
vt 0.234654 0.421746
vt 0.208919 0.504227
vt 0.266319 0.504227
vt 0.266272 0.514967
vt 0.208890 0.515207
vt 0.208084 0.635549
vt 0.195291 0.635549
vt 0.196089 0.515099
vt 0.427706 0.516874
vt 0.426138 0.635549
vt 0.413448 0.635549
vt 0.414806 0.516722
vt 0.230756 0.491660
vt 0.276093 0.491660
vt 0.173121 0.635549
vt 0.173840 0.531083
vt 0.449803 0.531083
vt 0.448204 0.635549
vt 0.391399 0.635549
vt 0.392533 0.531083
vt 0.281560 0.421432
vt 0.281623 0.407622
vt 0.337657 0.408146
vt 0.337551 0.421974
vt 0.342888 0.491660
vt 0.351147 0.504227
vt 0.351021 0.515588
vt 0.342491 0.531083
vt 0.341515 0.635549
vt 0.349935 0.422226
vt 0.350046 0.401756
vt 0.388887 0.401911
vt 0.388784 0.422386
vt 0.393195 0.491660
vt 0.414923 0.504227
vt 0.276363 0.421401
vt 0.276414 0.398896
vt 0.342947 0.399499
vt 0.342789 0.421992
vt 0.281488 0.480672
vt 0.337582 0.481185
vt 0.484847 0.531083
vt 0.483063 0.635549
vt 0.349364 0.486134
vt 0.349738 0.455968
vt 0.388553 0.456201
vt 0.388009 0.486134
vt 0.337508 0.454777
vt 0.342670 0.454700
vt 0.615768 0.575880
vt 0.615782 0.561809
vt 0.645822 0.561815
vt 0.645809 0.575887
vt 0.276460 0.454127
vt 0.281605 0.454233
vt 0.234654 0.455481
vt 0.269830 0.455362
vt 0.270135 0.486134
vt 0.234654 0.486134
vt 0.138157 0.635549
vt 0.138889 0.531083
vt 0.490574 0.531083
vt 0.488613 0.635549
vt 0.349796 0.447905
vt 0.388642 0.448081
vt 0.337524 0.449046
vt 0.342684 0.449018
vt 0.281654 0.448492
vt 0.276480 0.448437
vt 0.234654 0.447400
vt 0.269799 0.447297
vt 0.132507 0.635549
vt 0.133257 0.531083
vt 0.576337 0.628099
vt 0.576324 0.613641
vt 0.606366 0.613636
vt 0.606378 0.628094
vt 0.586837 0.575832
vt 0.586861 0.561761
vt 0.615783 0.532886
vt 0.645825 0.532888
vt 0.674751 0.561858
vt 0.674731 0.575930
vt 0.645806 0.604810
vt 0.615765 0.604807
vt 0.547416 0.628144
vt 0.547394 0.613686
vt 0.576325 0.584713
vt 0.606366 0.584714
vt 0.635287 0.613595
vt 0.635307 0.628053
vt 0.606380 0.657021
vt 0.576339 0.657023
vt 0.229554 0.395901
vt 0.274583 0.395901
vt 0.228015 0.421548
vt 0.227936 0.399083
vt 0.228742 0.489007
vt 0.228171 0.454094
vt 0.228131 0.448505
vt 0.344466 0.395901
vt 0.394509 0.395901
vt 0.396047 0.399708
vt 0.395934 0.422196
vt 0.395722 0.454832
vt 0.395094 0.489765
vt 0.395781 0.449199
vn 1.000000 0.000000 0.000000
vn 1.000000 0.000000 0.000000
vn 1.000000 0.000000 0.000000
vn 1.000000 0.000000 0.000000
vn 0.000000 1.000000 0.000000
vn 0.000000 1.000000 0.000000
vn 0.000000 1.000000 0.000000
vn 0.000000 1.000000 0.000000
vn -1.000000 0.000000 0.000000
vn -1.000000 0.000000 0.000000
vn -1.000000 0.000000 0.000000
vn -1.000000 0.000000 0.000000
vn 0.000000 0.000000 1.000000
vn 0.000000 0.000000 1.000000
vn 0.000000 0.000000 1.000000
vn 0.000000 0.000000 1.000000
vn 0.000000 0.000000 1.000000
vn 0.000000 0.000000 1.000000
vn 0.000000 0.000000 1.000000
vn 0.000000 0.000000 1.000000
vn -1.000000 0.000000 0.000000
vn -1.000000 0.000000 0.000000
vn -1.000000 0.000000 0.000000
vn -1.000000 0.000000 0.000000
vn 1.000000 0.000000 0.000000
vn 1.000000 0.000000 0.000000
vn 1.000000 0.000000 0.000000
vn 1.000000 0.000000 0.000000
vn 0.000000 -1.000000 -0.000001
vn 0.000000 -1.000000 -0.000001
vn 0.000000 -1.000000 -0.000001
vn 0.000000 -1.000000 -0.000001
vn 0.000000 1.000000 0.000000
vn 0.000000 1.000000 0.000000
vn 0.000000 1.000000 0.000000
vn 0.000000 1.000000 0.000000
vn 0.000000 1.000000 0.000000
vn 0.000000 1.000000 0.000000
vn 0.000000 1.000000 0.000000
vn 0.000000 1.000000 0.000000
vn 0.000000 -1.000000 0.000000
vn 0.000000 -1.000000 0.000000
vn 0.000000 -1.000000 0.000000
vn 0.000000 -1.000000 0.000000
vn 0.000000 -1.000000 0.000000
vn 0.000000 -1.000000 0.000000
vn 0.000000 -1.000000 0.000000
vn 0.000000 -1.000000 0.000000
vn 0.000000 1.000000 0.000000
vn 0.000000 1.000000 0.000000
vn 0.000000 1.000000 0.000000
vn 0.000000 1.000000 0.000000
vn 0.000000 0.000000 1.000000
vn 0.000000 0.000000 1.000000
vn 0.000000 0.000000 1.000000
vn 0.000000 0.000000 1.000000
vn 0.000000 -1.000000 0.000000
vn 0.000000 -1.000000 0.000000
vn 0.000000 -1.000000 0.000000
vn 0.000000 -1.000000 0.000000
vn 0.000000 0.000000 1.000000
vn 0.000000 0.000000 1.000000
vn 0.000000 0.000000 1.000000
vn 0.000000 0.000000 1.000000
vn 0.000000 1.000000 -0.000001
vn 0.000000 1.000000 -0.000001
vn 0.000000 1.000000 -0.000001
vn 0.000000 1.000000 -0.000001
vn 0.000000 1.000000 0.000000
vn 0.000000 1.000000 0.000000
vn 0.000000 1.000000 0.000000
vn 0.000000 1.000000 0.000000
vn 0.000000 0.000000 1.000000
vn 0.000000 0.000000 1.000000
vn 0.000000 0.000000 1.000000
vn 0.000000 0.000000 1.000000
vn 0.000000 -1.000000 0.000000
vn 0.000000 -1.000000 0.000000
vn 0.000000 -1.000000 0.000000
vn 0.000000 -1.000000 0.000000
vn 0.000000 0.000000 1.000000
vn 0.000000 0.000000 1.000000
vn 0.000000 0.000000 1.000000
vn 0.000000 0.000000 1.000000
vn 0.000000 1.000000 0.000000
vn 0.000000 1.000000 0.000000
vn 0.000000 1.000000 0.000000
vn 0.000000 1.000000 0.000000
vn 0.000000 1.000000 0.000000
vn 0.000000 1.000000 0.000000
vn 0.000000 1.000000 0.000000
vn 0.000000 1.000000 0.000000
vn 0.000000 0.000000 1.000000
vn 0.000000 0.000000 1.000000
vn 0.000000 0.000000 1.000000
vn 0.000000 0.000000 1.000000
vn 0.000000 0.000000 1.000000
vn 0.000000 0.000000 1.000000
vn 0.000000 0.000000 1.000000
vn 0.000000 0.000000 1.000000
vn 0.000000 0.000000 1.000000
vn 0.000000 0.000000 1.000000
vn 0.000000 0.000000 1.000000
vn 0.000000 0.000000 1.000000
vn 0.000000 0.000000 1.000000
vn 0.000000 0.000000 1.000000
vn 0.000000 0.000000 1.000000
vn 0.000000 0.000000 1.000000
vn 1.000000 0.000000 0.000000
vn 1.000000 0.000000 0.000000
vn 1.000000 0.000000 0.000000
vn 1.000000 0.000000 0.000000
vn 0.000000 0.000000 1.000000
vn 0.000000 0.000000 1.000000
vn 0.000000 0.000000 1.000000
vn 0.000000 0.000000 1.000000
vn -0.000010 0.000000 1.000000
vn -0.000010 0.000000 1.000000
vn -0.000010 0.000000 1.000000
vn -0.000010 0.000000 1.000000
vn 0.000000 0.000000 1.000000
vn 0.000000 0.000000 1.000000
vn 0.000000 0.000000 1.000000
vn 0.000000 0.000000 1.000000
vn 0.000010 0.000000 1.000000
vn 0.000010 0.000000 1.000000
vn 0.000010 0.000000 1.000000
vn 0.000010 0.000000 1.000000
vn 0.000000 0.000000 1.000000
vn 0.000000 0.000000 1.000000
vn 0.000000 0.000000 1.000000
vn 0.000000 0.000000 1.000000
vn -1.000000 0.000000 0.000000
vn -1.000000 0.000000 0.000000
vn -1.000000 0.000000 0.000000
vn -1.000000 0.000000 0.000000
vn 1.000000 0.000000 0.000000
vn 1.000000 0.000000 0.000000
vn 1.000000 0.000000 0.000000
vn 1.000000 0.000000 0.000000
vn 0.000000 0.000000 1.000000
vn 0.000000 0.000000 1.000000
vn 0.000000 0.000000 1.000000
vn 0.000000 0.000000 1.000000
vn -0.000014 0.000000 1.000000
vn -0.000014 0.000000 1.000000
vn -0.000014 0.000000 1.000000
vn -0.000014 0.000000 1.000000
vn 0.000000 0.000000 1.000000
vn 0.000000 0.000000 1.000000
vn 0.000000 0.000000 1.000000
vn 0.000000 0.000000 1.000000
vn 0.000009 0.000000 1.000000
vn 0.000009 0.000000 1.000000
vn 0.000009 0.000000 1.000000
vn 0.000009 0.000000 1.000000
vn 0.000000 0.000000 1.000000
vn 0.000000 0.000000 1.000000
vn 0.000000 0.000000 1.000000
vn 0.000000 0.000000 1.000000
vn -1.000000 0.000000 0.000000
vn -1.000000 0.000000 0.000000
vn -1.000000 0.000000 0.000000
vn -1.000000 0.000000 0.000000
vn 1.000000 0.000000 0.000000
vn 1.000000 0.000000 0.000000
vn 1.000000 0.000000 0.000000
vn 1.000000 0.000000 0.000000
vn 0.000000 0.000000 1.000000
vn 0.000000 0.000000 1.000000
vn 0.000000 0.000000 1.000000
vn 0.000000 0.000000 1.000000
vn 0.000012 0.000000 1.000000
vn 0.000012 0.000000 1.000000
vn 0.000012 0.000000 1.000000
vn 0.000012 0.000000 1.000000
vn 0.000000 0.000000 1.000000
vn 0.000000 0.000000 1.000000
vn 0.000000 0.000000 1.000000
vn 0.000000 0.000000 1.000000
vn -0.000008 0.000000 1.000000
vn -0.000008 0.000000 1.000000
vn -0.000008 0.000000 1.000000
vn -0.000008 0.000000 1.000000
vn 0.000000 0.000000 1.000000
vn 0.000000 0.000000 1.000000
vn 0.000000 0.000000 1.000000
vn 0.000000 0.000000 1.000000
vn -1.000000 0.000000 0.000000
vn -1.000000 0.000000 0.000000
vn -1.000000 0.000000 0.000000
vn -1.000000 0.000000 0.000000
vn 1.000000 0.000000 0.000000
vn 1.000000 0.000000 0.000000
vn 1.000000 0.000000 0.000000
vn 1.000000 0.000000 0.000000
vn 0.000000 1.000000 0.000000
vn 0.000000 1.000000 0.000000
vn 0.000000 1.000000 0.000000
vn 0.000000 1.000000 0.000000
vn -1.000000 0.000000 0.000000
vn -1.000000 0.000000 0.000000
vn -1.000000 0.000000 0.000000
vn -1.000000 0.000000 0.000000
vn 0.000000 -1.000000 0.000000
vn 0.000000 -1.000000 0.000000
vn 0.000000 -1.000000 0.000000
vn 0.000000 -1.000000 0.000000
vn 1.000000 0.000000 0.000000
vn 1.000000 0.000000 0.000000
vn 1.000000 0.000000 0.000000
vn 1.000000 0.000000 0.000000
vn 0.000000 1.000000 0.000000
vn 0.000000 1.000000 0.000000
vn 0.000000 1.000000 0.000000
vn 0.000000 1.000000 0.000000
vn -1.000000 0.000000 0.000000
vn -1.000000 0.000000 0.000000
vn -1.000000 0.000000 0.000000
vn -1.000000 0.000000 0.000000
vn 0.000000 -1.000000 0.000000
vn 0.000000 -1.000000 0.000000
vn 0.000000 -1.000000 0.000000
vn 0.000000 -1.000000 0.000000
vn 0.000000 -0.893154 0.449751
vn 0.000000 -0.893154 0.449751
vn 0.000000 -0.893154 0.449751
vn 0.000000 -0.893154 0.449751
vn 0.661550 0.000000 0.749901
vn 0.661550 0.000000 0.749901
vn 0.661550 0.000000 0.749901
vn 0.661550 0.000000 0.749901
vn -0.661543 0.000000 0.749907
vn -0.661543 0.000000 0.749907
vn -0.661543 0.000000 0.749907
vn -0.661543 0.000000 0.749907
vn 0.661552 0.000000 0.749899
vn 0.661552 0.000000 0.749899
vn 0.661552 0.000000 0.749899
vn 0.661553 0.000000 0.749899
vn 0.000000 0.787660 0.616110
vn 0.000000 0.787661 0.616110
vn 0.000000 0.787661 0.616110
vn 0.000000 0.787660 0.616110
vn -0.661543 0.000000 0.749908
vn -0.661543 0.000000 0.749908
vn -0.661543 0.000000 0.749908
vn -0.661543 0.000000 0.749908
vn 0.661556 0.000000 0.749896
vn 0.661556 0.000000 0.749896
vn 0.661556 0.000000 0.749896
vn 0.661556 0.000000 0.749896
vn -0.661547 0.000000 0.749904
vn -0.661547 0.000000 0.749903
vn -0.661547 0.000000 0.749903
vn -0.661547 0.000000 0.749903
vn 0.661554 0.000000 0.749898
vn 0.661554 0.000000 0.749898
vn 0.661554 0.000000 0.749898
vn 0.661554 0.000000 0.749898
vn -0.661548 0.000000 0.749903
vn -0.661548 0.000000 0.749903
vn -0.661548 0.000000 0.749903
vn -0.661548 0.000000 0.749903
vn -0.621759 0.000000 0.783209
vn -0.621759 0.000000 0.783209
vn -0.621759 0.000000 0.783209
vn -0.621759 0.000000 0.783209
vn 0.000000 -0.893154 0.449751
vn 0.000000 -0.893154 0.449751
vn 0.000000 -0.893154 0.449751
vn 0.000000 -0.893154 0.449751
vn 0.621767 0.000000 0.783202
vn 0.621767 0.000000 0.783202
vn 0.621767 0.000000 0.783202
vn 0.621767 0.000000 0.783202
vn -0.621758 0.000000 0.783209
vn -0.621758 0.000000 0.783209
vn -0.621758 0.000000 0.783209
vn -0.621758 0.000000 0.783209
vn 0.621769 0.000000 0.783201
vn 0.621769 0.000000 0.783201
vn 0.621769 0.000000 0.783201
vn 0.621769 0.000000 0.783201
vn 0.000000 0.787660 0.616110
vn 0.000000 0.787660 0.616110
vn 0.000000 0.787660 0.616110
vn 0.000000 0.787660 0.616110
vn -0.621763 0.000000 0.783206
vn -0.621763 0.000000 0.783206
vn -0.621763 0.000000 0.783206
vn -0.621763 0.000000 0.783206
vn 0.621773 0.000000 0.783198
vn 0.621773 0.000000 0.783198
vn 0.621773 0.000000 0.783198
vn 0.621773 0.000000 0.783198
vn -0.621764 0.000000 0.783205
vn -0.621764 0.000000 0.783205
vn -0.621764 0.000000 0.783205
vn -0.621764 0.000000 0.783205
vn 0.621771 0.000000 0.783199
vn 0.621771 0.000000 0.783199
vn 0.621771 0.000000 0.783199
vn 0.621771 0.000000 0.783199
g polySurface299 polySurface264
usemtl blinn4SG
f 1/1/1 2/2/2 53/3/3 54/4/4
f 25/5/5 26/6/6 6/7/7 5/8/8
f 59/9/9 60/10/10 8/11/11 7/12/12
f 69/13/13 70/14/14 71/15/15 72/16/16
f 14/17/17 23/18/18 24/19/19 16/20/20
f 16/20/21 17/21/22 18/22/23 14/23/24
f 13/24/25 19/25/26 20/26/27 15/27/28
f 10/28/29 22/29/30 23/18/31 14/17/32
f 25/5/33 5/8/34 16/20/35 24/19/36
f 5/8/37 6/7/38 17/21/39 16/20/40
f 11/30/41 10/31/42 14/23/43 18/22/44
f 9/32/45 12/33/46 19/25/47 13/24/48
f 4/34/49 3/35/50 15/27/51 20/26/52
f 57/36/53 33/37/54 35/38/55 56/39/56
f 23/18/57 22/29/58 28/40/59 29/41/60
f 24/19/61 23/18/62 29/41/63 30/42/64
f 31/43/65 25/5/66 24/19/67 30/42/68
f 31/43/69 32/44/70 26/6/71 25/5/72
f 80/45/73 79/46/74 81/47/75 82/48/76
f 29/41/77 28/40/78 9/49/79 13/50/80
f 30/42/81 29/41/82 13/50/83 15/27/84
f 3/35/85 31/43/86 30/42/87 15/27/88
f 3/35/89 4/34/90 32/44/91 31/43/92
f 58/51/93 21/52/94 33/37/95 57/36/96
f 21/52/97 27/53/98 35/38/99 33/37/100
f 27/53/101 55/54/102 56/39/103 35/38/104
f 28/40/105 22/29/106 34/55/107 36/56/108
f 38/57/109 37/58/110 12/33/111 9/32/112
f 84/59/113 83/60/114 85/61/115 86/62/116
f 40/63/117 39/64/118 28/40/119 36/56/120
f 62/65/121 61/66/122 63/67/123 64/68/124
f 22/29/125 42/69/126 41/70/127 34/55/128
f 74/71/129 73/72/130 75/73/131 76/74/132
f 10/31/133 11/30/134 44/75/135 43/76/136
f 46/77/137 45/78/138 37/58/139 38/57/140
f 83/60/141 87/79/142 88/80/143 85/61/144
f 48/81/145 47/82/146 39/64/147 40/63/148
f 41/70/149 49/83/150 48/81/151 40/63/152
f 42/69/153 50/84/154 49/83/155 41/70/156
f 78/85/157 77/86/158 73/72/159 74/71/160
f 43/76/161 44/75/162 52/87/163 51/88/164
f 54/4/165 53/3/166 45/78/167 46/77/168
f 87/79/169 80/45/170 82/48/171 88/80/172
f 56/39/173 55/54/174 47/82/175 48/81/176
f 66/89/177 65/90/178 67/91/179 68/92/180
f 50/84/181 58/51/182 57/36/183 49/83/184
f 72/16/185 71/15/186 77/86/187 78/85/188
f 51/88/189 52/87/190 60/10/191 59/9/192
f 34/93/193 41/94/194 61/66/195 62/65/196
f 41/95/197 40/96/198 63/67/199 61/66/200
f 40/97/201 36/98/202 64/68/203 63/67/204
f 36/99/205 34/100/206 62/65/207 64/68/208
f 49/101/209 57/102/210 65/90/211 66/89/212
f 57/103/213 56/104/214 67/91/215 65/90/216
f 56/105/217 48/106/218 68/92/219 67/91/220
f 48/107/221 49/108/222 66/89/223 68/92/224
f 7/109/225 21/110/226 70/14/227 69/13/228
f 21/52/229 58/51/230 71/15/231 70/14/232
f 59/111/233 7/112/234 69/13/235 72/16/236
f 42/69/237 22/29/238 75/73/239 73/72/240
f 22/29/241 10/28/242 76/74/243 75/73/244
f 10/113/245 43/114/246 74/71/247 76/74/248
f 50/84/249 42/69/250 73/72/251 77/86/252
f 43/114/253 51/115/254 78/85/255 74/71/256
f 58/51/257 50/84/258 77/86/259 71/15/260
f 51/115/261 59/111/262 72/16/263 78/85/264
f 55/54/265 27/53/266 79/46/267 80/45/268
f 27/116/269 1/117/270 81/47/271 79/46/272
f 1/118/273 54/119/274 82/48/275 81/47/276
f 28/40/277 39/64/278 83/60/279 84/59/280
f 38/120/281 9/121/282 86/62/283 85/61/284
f 9/49/285 28/40/286 84/59/287 86/62/288
f 39/64/289 47/82/290 87/79/291 83/60/292
f 46/122/293 38/120/294 85/61/295 88/80/296
f 47/82/297 55/54/298 80/45/299 87/79/300
f 54/119/301 46/122/302 88/80/303 82/48/304
