# This file uses centimeters as units for non-parametric coordinates.

mtllib fridge.mtl
g default
v -10.981993 8.700749 -82.610855
v -1.709064 8.700749 -82.610855
v -10.981993 20.059753 -82.610855
v -1.709064 20.059753 -82.610855
v -10.981993 20.059753 -89.405838
v -1.709064 20.059753 -89.405838
v -10.981993 8.700749 -89.405838
v -1.709064 8.700749 -89.405838
v -6.636520 20.059753 -89.405838
v -6.636520 8.700749 -89.405838
v -6.636520 20.059753 -82.610855
v -6.572130 20.059753 -89.405838
v -6.572130 8.700749 -89.405838
v -6.572130 20.059753 -82.610855
v -6.636520 13.547221 -89.405838
v -10.981993 13.547221 -89.405838
v -10.981993 13.547221 -82.610855
v -1.709064 13.547221 -82.610855
v -1.709064 13.547221 -89.405838
v -6.572130 13.547221 -89.405838
v -6.636520 13.351887 -89.405838
v -10.981993 13.351887 -89.405838
v -10.981993 13.351887 -82.610855
v -1.709064 13.351887 -82.610855
v -1.709064 13.351887 -89.405838
v -6.572130 13.351887 -89.405838
v -10.870472 19.900494 -89.733757
v -6.718563 19.900494 -89.733757
v -6.718563 13.714149 -89.733757
v -10.870472 13.714149 -89.733757
v -6.479570 19.900494 -89.733757
v -1.833145 19.900494 -89.733757
v -1.833145 13.714149 -89.733757
v -6.479570 13.714149 -89.733757
v -6.718563 13.234090 -89.733757
v -10.870472 13.234090 -89.733757
v -6.718563 8.866561 -89.733757
v -10.870472 8.866561 -89.733757
v -1.833145 13.234090 -89.733757
v -6.479570 13.234090 -89.733757
v -1.833145 8.866561 -89.733757
v -6.479570 8.866561 -89.733757
vt 0.547479 0.063680
vt 0.547228 0.098448
vt 0.492794 0.098125
vt 0.493045 0.063272
vt 0.741841 0.311286
vt 0.671069 0.308848
vt 0.673899 0.226148
vt 0.744670 0.228583
vt 0.547052 0.178656
vt 0.492617 0.178700
vt 0.492650 0.137710
vt 0.547085 0.137811
vt 0.493387 0.022335
vt 0.547820 0.022787
vt 0.659009 0.299987
vt 0.657912 0.299936
vt 0.661926 0.212922
vt 0.662969 0.212955
vt 0.547214 0.098914
vt 0.492780 0.098693
vt 0.646130 0.307927
vt 0.566885 0.307231
vt 0.567592 0.224484
vt 0.646838 0.225181
vt 0.736682 0.220105
vt 0.663107 0.210335
vt 0.736934 0.217504
vt 0.493404 0.021095
vt 0.547837 0.021572
vt 0.547050 0.179805
vt 0.492616 0.180006
vt 0.579075 0.215493
vt 0.578994 0.212882
vt 0.661952 0.210322
vt 0.747072 0.201780
vt 0.676268 0.200590
vt 0.677238 0.142176
vt 0.748042 0.143367
vt 0.493669 -0.008131
vt 0.548101 -0.007643
vt 0.547198 0.208987
vt 0.492764 0.209266
vt 0.649010 0.197875
vt 0.569795 0.200157
vt 0.568120 0.141759
vt 0.647335 0.139479
vt 0.661062 0.148127
vt 0.662161 0.148110
vt 0.743535 0.317338
vt 0.669464 0.314776
vt 0.665238 0.310781
vt 0.668210 0.223719
vt 0.672707 0.220079
vt 0.746779 0.222633
vt 0.750646 0.226553
vt 0.747677 0.313616
vt 0.647656 0.313929
vt 0.564716 0.313193
vt 0.560892 0.309311
vt 0.561626 0.222201
vt 0.565530 0.218439
vt 0.648470 0.219178
vt 0.652664 0.222997
vt 0.651928 0.310107
vt 0.748876 0.207624
vt 0.674771 0.206374
vt 0.670481 0.202070
vt 0.671507 0.139864
vt 0.675941 0.136133
vt 0.750046 0.137387
vt 0.753982 0.141247
vt 0.752956 0.203453
vt 0.650755 0.203635
vt 0.567846 0.206029
vt 0.563859 0.201902
vt 0.562082 0.139713
vt 0.565832 0.135805
vt 0.648741 0.133420
vt 0.653084 0.137095
vt 0.654860 0.199285
vn 0.000000 1.000000 0.000000
vn 0.000000 1.000000 0.000000
vn 0.000000 1.000000 0.000000
vn 0.000000 1.000000 0.000000
vn 0.000000 0.000000 -1.000000
vn 0.000000 0.000000 -1.000000
vn 0.000000 0.000000 -1.000000
vn 0.000000 0.000000 -1.000000
vn 1.000000 0.000000 0.000000
vn 1.000000 0.000000 0.000000
vn 1.000000 0.000000 0.000000
vn 1.000000 0.000000 0.000000
vn -1.000000 0.000000 0.000000
vn -1.000000 0.000000 0.000000
vn -1.000000 0.000000 0.000000
vn -1.000000 0.000000 0.000000
vn 0.000000 0.000000 -1.000000
vn 0.000000 0.000000 -1.000000
vn 0.000000 0.000000 -1.000000
vn 0.000000 0.000000 -1.000000
vn 0.000000 1.000000 0.000000
vn 0.000000 1.000000 0.000000
vn 0.000000 1.000000 0.000000
vn 0.000000 1.000000 0.000000
vn 0.000000 0.000000 -1.000000
vn 0.000000 0.000000 -1.000000
vn 0.000000 0.000000 -1.000000
vn 0.000000 0.000000 -1.000000
vn 0.000000 1.000000 0.000000
vn 0.000000 1.000000 0.000000
vn 0.000000 1.000000 0.000000
vn 0.000000 1.000000 0.000000
vn 0.000000 0.000000 -1.000000
vn 0.000000 0.000000 -1.000000
vn 0.000000 0.000000 -1.000000
vn 0.000000 0.000000 -1.000000
vn -1.000000 0.000000 0.000000
vn -1.000000 0.000000 0.000000
vn -1.000000 0.000000 0.000000
vn -1.000000 0.000000 0.000000
vn 1.000000 0.000000 0.000000
vn 1.000000 0.000000 0.000000
vn 1.000000 0.000000 0.000000
vn 1.000000 0.000000 0.000000
vn 0.000000 0.000000 -1.000000
vn 0.000000 0.000000 -1.000000
vn 0.000000 0.000000 -1.000000
vn 0.000000 0.000000 -1.000000
vn 0.000000 0.000000 -1.000000
vn 0.000000 0.000000 -1.000000
vn 0.000000 0.000000 -1.000000
vn 0.000000 0.000000 -1.000000
vn 0.000000 0.000000 -1.000000
vn 0.000000 0.000000 -1.000000
vn 0.000000 0.000000 -1.000000
vn 0.000000 0.000000 -1.000000
vn -1.000000 0.000000 0.000000
vn -1.000000 0.000000 0.000000
vn -1.000000 0.000000 0.000000
vn -1.000000 0.000000 0.000000
vn 1.000000 0.000000 0.000000
vn 1.000000 0.000000 0.000000
vn 1.000000 0.000000 0.000000
vn 1.000000 0.000000 0.000000
vn 0.000000 0.000000 -1.000000
vn 0.000000 0.000000 -1.000000
vn 0.000000 0.000000 -1.000000
vn 0.000000 0.000000 -1.000000
vn 0.000000 0.000000 -1.000000
vn 0.000000 0.000000 -1.000000
vn 0.000000 0.000000 -1.000000
vn 0.000000 0.000000 -1.000000
vn 0.000000 0.899527 -0.436866
vn 0.000000 0.899527 -0.436865
vn 0.000000 0.899527 -0.436865
vn 0.000000 0.899527 -0.436865
vn 0.970098 0.000000 -0.242712
vn 0.970098 0.000000 -0.242712
vn 0.970098 0.000000 -0.242712
vn 0.970098 0.000000 -0.242712
vn 0.000000 -0.891178 -0.453654
vn 0.000000 -0.891178 -0.453654
vn 0.000000 -0.891178 -0.453654
vn 0.000000 -0.891178 -0.453654
vn -0.946748 0.000000 -0.321976
vn -0.946748 0.000000 -0.321976
vn -0.946748 0.000000 -0.321976
vn -0.946748 0.000000 -0.321976
vn 0.000000 0.899527 -0.436865
vn 0.000000 0.899527 -0.436865
vn 0.000000 0.899527 -0.436865
vn 0.000000 0.899527 -0.436865
vn 0.935283 0.000000 -0.353902
vn 0.935283 0.000000 -0.353902
vn 0.935283 0.000000 -0.353902
vn 0.935283 0.000000 -0.353902
vn 0.000000 -0.891178 -0.453655
vn 0.000000 -0.891178 -0.453655
vn 0.000000 -0.891178 -0.453654
vn 0.000000 -0.891178 -0.453655
vn -0.962396 0.000000 -0.271652
vn -0.962396 0.000000 -0.271652
vn -0.962396 0.000000 -0.271652
vn -0.962396 0.000000 -0.271652
vn 0.000000 0.941120 -0.338073
vn 0.000000 0.941120 -0.338073
vn 0.000000 0.941120 -0.338073
vn 0.000000 0.941120 -0.338073
vn 0.970098 0.000000 -0.242713
vn 0.970098 0.000000 -0.242713
vn 0.970098 0.000000 -0.242713
vn 0.970098 0.000000 -0.242713
vn 0.000000 -0.892402 -0.451242
vn 0.000000 -0.892402 -0.451242
vn 0.000000 -0.892402 -0.451242
vn 0.000000 -0.892402 -0.451242
vn -0.946748 0.000000 -0.321976
vn -0.946748 0.000000 -0.321976
vn -0.946748 0.000000 -0.321976
vn -0.946748 0.000000 -0.321976
vn 0.000000 0.941120 -0.338073
vn 0.000000 0.941120 -0.338073
vn 0.000000 0.941120 -0.338073
vn 0.000000 0.941120 -0.338073
vn 0.935282 0.000000 -0.353903
vn 0.935282 0.000000 -0.353903
vn 0.935282 0.000000 -0.353903
vn 0.935282 0.000000 -0.353903
vn 0.000000 -0.892402 -0.451242
vn 0.000000 -0.892402 -0.451242
vn 0.000000 -0.892402 -0.451242
vn 0.000000 -0.892402 -0.451242
vn -0.962396 0.000000 -0.271652
vn -0.962396 0.000000 -0.271652
vn -0.962396 0.000000 -0.271652
vn -0.962396 0.000000 -0.271652
g polySurface268 polySurface264
usemtl blinn4SG
f 3/1/1 11/2/2 9/3/3 5/4/4
f 27/5/5 28/6/6 29/7/7 30/8/8
f 18/9/9 19/10/10 6/11/11 4/12/12
f 16/13/13 17/14/14 3/1/15 5/4/16
f 9/15/17 12/16/18 20/17/19 15/18/20
f 9/3/21 11/2/22 14/19/23 12/20/24
f 31/21/25 32/22/26 33/23/27 34/24/28
f 12/20/29 14/19/30 4/12/31 6/11/32
f 16/25/33 15/18/34 21/26/35 22/27/36
f 22/28/37 23/29/38 17/14/39 16/13/40
f 24/30/41 25/31/42 19/10/43 18/9/44
f 20/17/45 19/32/46 25/33/47 26/34/48
f 15/18/49 20/17/50 26/34/51 21/26/52
f 36/35/53 35/36/54 37/37/55 38/38/56
f 7/39/57 1/40/58 23/29/59 22/28/60
f 2/41/61 8/42/62 25/31/63 24/30/64
f 40/43/65 39/44/66 41/45/67 42/46/68
f 21/26/69 26/34/70 13/47/71 10/48/72
f 5/49/73 9/50/74 28/6/75 27/5/76
f 9/51/77 15/52/78 29/7/79 28/6/80
f 15/53/81 16/54/82 30/8/83 29/7/84
f 16/55/85 5/56/86 27/5/87 30/8/88
f 12/57/89 6/58/90 32/22/91 31/21/92
f 6/59/93 19/60/94 33/23/95 32/22/96
f 19/61/97 20/62/98 34/24/99 33/23/100
f 20/63/101 12/64/102 31/21/103 34/24/104
f 22/65/105 21/66/106 35/36/107 36/35/108
f 21/67/109 10/68/110 37/37/111 35/36/112
f 10/69/113 7/70/114 38/38/115 37/37/116
f 7/71/117 22/72/118 36/35/119 38/38/120
f 26/73/121 25/74/122 39/44/123 40/43/124
f 25/75/125 8/76/126 41/45/127 39/44/128
f 8/77/129 13/78/130 42/46/131 41/45/132
f 13/79/133 26/80/134 40/43/135 42/46/136
