# This file uses centimeters as units for non-parametric coordinates.

mtllib knife.mtl
g default
v -1.565785 0.078962 7.939992
v 1.565785 0.078962 7.939992
v -1.565785 2.052738 7.939992
v 1.565785 2.052738 7.939992
v -1.565785 1.656240 2.977816
v 1.565785 1.656240 2.977816
v -1.565785 0.078962 2.977816
v 1.565785 0.078962 2.977816
v -2.408139 0.078962 11.321495
v 1.591359 0.078962 11.321495
v 1.591359 2.180523 11.321495
v -2.408139 2.180523 11.321495
v -2.408139 0.078962 13.036261
v 1.591359 0.078962 13.036261
v 1.591359 2.180523 13.036261
v -2.408139 2.180523 13.036261
v -0.212545 1.656240 2.977816
v -0.212545 0.078962 2.977816
v -0.212545 0.078962 7.939992
v -0.679843 0.078962 11.321495
v -0.679843 0.078962 13.036261
v -0.679843 2.180523 13.036261
v -0.679843 2.180523 11.321495
v -0.212545 2.052738 7.939992
v 1.565785 1.076583 2.977816
v -0.212545 1.076583 2.977816
v -1.565785 1.076583 2.977816
v -1.565785 1.327367 7.939992
v -2.408139 1.408190 11.321495
v -2.408139 1.408190 13.036261
v -0.679843 1.408190 13.036261
v 1.591359 1.408190 13.036261
v 1.591359 1.408190 11.321495
v 1.565785 1.327367 7.939992
v 1.565785 0.682001 2.977816
v -0.212545 0.682001 2.977816
v -1.565785 0.682001 2.977816
v -1.565785 0.833590 7.939992
v -2.408139 0.882444 11.321495
v -2.408139 0.882444 13.036261
v -0.679843 0.882444 13.036261
v 1.591359 0.882444 13.036261
v 1.591359 0.882444 11.321495
v 1.565785 0.833590 7.939992
v 1.565785 1.076583 1.876997
v -5.144963 1.076583 1.771561
v 1.565785 0.682001 1.876997
v -5.144963 0.682001 1.771561
v 1.565785 1.076583 -16.216738
v 0.199330 1.076583 -16.111301
v 1.565785 0.682001 -16.216738
v 0.199330 0.682001 -16.111301
v -2.068016 1.076583 -13.677984
v -2.068016 0.682001 -13.677984
v 1.565785 0.682001 -13.754725
v 1.565785 1.076583 -13.754725
v 1.419951 1.076583 -16.950516
v 1.154659 1.076583 -16.845078
v 1.419951 0.682001 -16.950516
v 1.154659 0.682001 -16.845078
vt 0.891664 0.527593
vt 0.919264 0.528606
vt 0.918790 0.540938
vt 0.891196 0.539832
vt 0.901053 0.621655
vt 0.922644 0.622671
vt 0.918689 0.702135
vt 0.897096 0.701032
vt 0.918211 0.711426
vt 0.896612 0.710231
vt 0.911057 0.345650
vt 0.932292 0.346685
vt 0.928751 0.425904
vt 0.906616 0.425243
vt 0.977457 0.427279
vt 0.976292 0.347910
vt 0.985531 0.348188
vt 0.989057 0.427559
vt 0.895742 0.343777
vt 0.886139 0.422573
vt 0.874576 0.421041
vt 0.886599 0.342882
vt 0.920826 0.479965
vt 0.893769 0.479515
vt 0.990368 0.481517
vt 0.978044 0.481307
vt 0.890046 0.567117
vt 0.917637 0.568315
vt 0.873650 0.476833
vt 0.861578 0.474972
vt 0.919983 0.507414
vt 0.892218 0.506512
vt 0.989912 0.508905
vt 0.977561 0.508695
vt 0.870409 0.504026
vt 0.858086 0.502362
vt 0.947068 0.703511
vt 0.946614 0.712768
vt 0.960487 0.347611
vt 0.957400 0.426793
vt 0.956903 0.480833
vt 0.956273 0.508328
vt 0.955535 0.529897
vt 0.955052 0.542380
vt 0.953894 0.569894
vt 0.951019 0.624009
vt 0.882971 0.338396
vt 0.878914 0.340932
vt 0.875230 0.335449
vt 0.879346 0.333383
vt 0.917832 0.717808
vt 0.896230 0.716474
vt 0.901798 0.344698
vt 0.894210 0.423573
vt 0.881666 0.477854
vt 0.878971 0.505223
vt 0.891935 0.519287
vt 0.919555 0.520214
vt 0.955847 0.521343
vt 0.969679 0.481124
vt 0.969139 0.508533
vt 0.969531 0.427096
vt 0.970035 0.347800
vt 0.946193 0.720152
vt 0.945405 0.729755
vt 0.917133 0.727439
vt 0.895602 0.726065
vt 0.831642 0.018604
vt 0.860056 0.018422
vt 0.860169 0.036011
vt 0.752957 0.038380
vt 0.865980 0.017071
vt 0.872294 0.017069
vt 0.872251 0.034678
vt 0.865954 0.034701
vt 0.900722 0.017124
vt 0.979458 0.036678
vt 0.902247 0.010984
vt 0.980986 0.030541
vt 0.861757 0.285776
vt 0.803689 0.284910
vt 0.871917 0.284519
vt 0.865591 0.284623
vt 0.929859 0.282945
vt 0.985619 0.038152
vt 0.935157 0.285698
vt 0.898740 0.326266
vt 0.894433 0.321731
vt 0.872700 0.323773
vt 0.866561 0.324406
vt 0.861994 0.325120
vt 0.840151 0.323564
vt 0.859731 0.336859
vt 0.855482 0.335199
vt 0.868829 0.336490
vn 0.000000 0.000000 1.000000
vn 0.000000 0.000000 1.000000
vn 0.000000 0.000000 1.000000
vn 0.000000 0.000000 1.000000
vn 0.000000 0.996823 -0.079650
vn 0.000000 0.996823 -0.079650
vn 0.000000 0.996823 -0.079650
vn 0.000000 0.996823 -0.079650
vn 0.000000 0.000000 -1.000000
vn 0.000000 0.000000 -1.000000
vn 0.000000 0.000000 -1.000000
vn 0.000000 0.000000 -1.000000
vn 0.000000 -1.000000 0.000000
vn 0.000000 -1.000000 0.000000
vn 0.000000 -1.000000 0.000000
vn 0.000000 -1.000000 0.000000
vn 1.000000 0.000000 0.000000
vn 1.000000 0.000000 0.000000
vn 1.000000 0.000000 0.000000
vn 1.000000 0.000000 0.000000
vn -1.000000 0.000000 0.000000
vn -1.000000 0.000000 0.000000
vn -1.000000 0.000000 0.000000
vn -1.000000 0.000000 0.000000
vn 0.000000 -1.000000 0.000000
vn 0.000000 -1.000000 0.000000
vn 0.000000 -1.000000 0.000000
vn 0.000000 -1.000000 0.000000
vn 0.999971 0.000000 -0.007563
vn 0.999971 0.000000 -0.007563
vn 0.999971 0.000000 -0.007563
vn 0.999971 0.000000 -0.007563
vn 0.000000 0.999287 -0.037763
vn 0.000000 0.999287 -0.037763
vn 0.000000 0.999287 -0.037763
vn 0.000000 0.999287 -0.037763
vn -0.970346 0.000000 -0.241719
vn -0.970346 0.000000 -0.241719
vn -0.970346 0.000000 -0.241719
vn -0.970346 0.000000 -0.241719
vn 0.000000 -1.000000 0.000000
vn 0.000000 -1.000000 0.000000
vn 0.000000 -1.000000 0.000000
vn 0.000000 -1.000000 0.000000
vn 1.000000 0.000000 0.000000
vn 1.000000 0.000000 0.000000
vn 1.000000 0.000000 0.000000
vn 1.000000 0.000000 0.000000
vn 0.000000 1.000000 0.000000
vn 0.000000 1.000000 0.000000
vn 0.000000 1.000000 0.000000
vn 0.000000 1.000000 0.000000
vn -1.000000 0.000000 0.000000
vn -1.000000 0.000000 0.000000
vn -1.000000 0.000000 0.000000
vn -1.000000 0.000000 0.000000
vn 0.000000 0.000000 -1.000000
vn 0.000000 0.000000 -1.000000
vn 0.000000 0.000000 -1.000000
vn 0.000000 0.000000 -1.000000
vn 0.000000 -1.000000 0.000000
vn 0.000000 -1.000000 0.000000
vn 0.000000 -1.000000 0.000000
vn 0.000000 -1.000000 0.000000
vn 0.000000 -1.000000 0.000000
vn 0.000000 -1.000000 0.000000
vn 0.000000 -1.000000 0.000000
vn 0.000000 -1.000000 0.000000
vn 0.000000 -1.000000 0.000000
vn 0.000000 -1.000000 0.000000
vn 0.000000 -1.000000 0.000000
vn 0.000000 -1.000000 0.000000
vn 0.000000 0.000000 1.000000
vn 0.000000 0.000000 1.000000
vn 0.000000 0.000000 1.000000
vn 0.000000 0.000000 1.000000
vn 0.000000 1.000000 0.000000
vn 0.000000 1.000000 0.000000
vn 0.000000 1.000000 0.000000
vn 0.000000 1.000000 0.000000
vn 0.000000 0.999287 -0.037763
vn 0.000000 0.999287 -0.037763
vn 0.000000 0.999287 -0.037763
vn 0.000000 0.999287 -0.037763
vn 0.000000 0.996823 -0.079650
vn 0.000000 0.996823 -0.079650
vn 0.000000 0.996823 -0.079650
vn 0.000000 0.996823 -0.079650
vn -0.369341 0.000000 -0.929294
vn -0.369341 0.000000 -0.929294
vn -0.369341 0.000000 -0.929294
vn -0.369341 0.000000 -0.929294
vn 0.000000 0.000000 -1.000000
vn 0.000000 0.000000 -1.000000
vn 0.000000 0.000000 -1.000000
vn 0.000000 0.000000 -1.000000
vn -1.000000 0.000000 0.000000
vn -1.000000 0.000000 0.000000
vn -1.000000 0.000000 0.000000
vn -1.000000 0.000000 0.000000
vn -0.970346 0.000000 -0.241719
vn -0.970346 0.000000 -0.241719
vn -0.970346 0.000000 -0.241719
vn -0.970346 0.000000 -0.241719
vn -1.000000 0.000000 0.000000
vn -1.000000 0.000000 0.000000
vn -1.000000 0.000000 0.000000
vn -1.000000 0.000000 0.000000
vn 0.000000 0.000000 1.000000
vn 0.000000 0.000000 1.000000
vn 0.000000 0.000000 1.000000
vn 0.000000 0.000000 1.000000
vn 0.000000 0.000000 1.000000
vn 0.000000 0.000000 1.000000
vn 0.000000 0.000000 1.000000
vn 0.000000 0.000000 1.000000
vn 1.000000 0.000000 0.000000
vn 1.000000 0.000000 0.000000
vn 1.000000 0.000000 0.000000
vn 1.000000 0.000000 0.000000
vn 0.999971 0.000000 -0.007563
vn 0.999971 0.000000 -0.007563
vn 0.999971 0.000000 -0.007563
vn 0.999971 0.000000 -0.007563
vn 1.000000 0.000000 0.000000
vn 1.000000 0.000000 0.000000
vn 1.000000 0.000000 0.000000
vn 1.000000 0.000000 0.000000
vn 0.000000 0.000000 -1.000000
vn 0.000000 0.000000 -1.000000
vn 0.000000 0.000000 -1.000000
vn 0.000000 0.000000 -1.000000
vn 0.000000 0.000000 -1.000000
vn 0.000000 0.000000 -1.000000
vn 0.000000 0.000000 -1.000000
vn 0.000000 0.000000 -1.000000
vn -1.000000 0.000000 0.000000
vn -1.000000 0.000000 0.000000
vn -1.000000 0.000000 0.000000
vn -1.000000 0.000000 0.000000
vn -0.970346 0.000000 -0.241719
vn -0.970346 0.000000 -0.241719
vn -0.970346 0.000000 -0.241719
vn -0.970346 0.000000 -0.241719
vn -1.000000 0.000000 0.000000
vn -1.000000 0.000000 0.000000
vn -1.000000 0.000000 0.000000
vn -1.000000 0.000000 0.000000
vn 0.000000 0.000000 1.000000
vn 0.000000 0.000000 1.000000
vn 0.000000 0.000000 1.000000
vn 0.000000 0.000000 1.000000
vn 0.000000 0.000000 1.000000
vn 0.000000 0.000000 1.000000
vn 0.000000 0.000000 1.000000
vn 0.000000 0.000000 1.000000
vn 1.000000 0.000000 0.000000
vn 1.000000 0.000000 0.000000
vn 1.000000 0.000000 0.000000
vn 1.000000 0.000000 0.000000
vn 0.999971 0.000000 -0.007563
vn 0.999971 0.000000 -0.007563
vn 0.999971 0.000000 -0.007563
vn 0.999971 0.000000 -0.007563
vn 1.000000 0.000000 0.000000
vn 1.000000 0.000000 0.000000
vn 1.000000 0.000000 0.000000
vn 1.000000 0.000000 0.000000
vn 0.000000 1.000000 -0.000000
vn 0.000000 1.000000 -0.000000
vn 0.000000 1.000000 -0.000000
vn 0.000000 1.000000 -0.000000
vn 1.000000 0.000000 0.000000
vn 1.000000 0.000000 0.000000
vn 1.000000 0.000000 0.000000
vn 1.000000 0.000000 0.000000
vn 0.000000 -1.000000 0.000000
vn 0.000000 -1.000000 0.000000
vn 0.000000 -1.000000 0.000000
vn 0.000000 -1.000000 0.000000
vn -0.237556 0.000000 0.971374
vn -0.237556 0.000000 0.971374
vn -0.237556 0.000000 0.971374
vn -0.237556 0.000000 0.971374
vn 0.000000 1.000000 0.000000
vn 0.000000 1.000000 0.000000
vn 0.000000 1.000000 0.000000
vn 0.000000 1.000000 0.000000
vn 1.000000 0.000000 0.000000
vn 1.000000 0.000000 0.000000
vn 1.000000 0.000000 0.000000
vn 1.000000 0.000000 0.000000
vn 0.000000 -1.000000 0.000000
vn 0.000000 -1.000000 0.000000
vn 0.000000 -1.000000 0.000000
vn 0.000000 -1.000000 0.000000
vn -0.980739 0.000000 -0.195325
vn -0.980739 0.000000 -0.195325
vn -0.980739 0.000000 -0.195325
vn -0.980739 0.000000 -0.195325
vn -0.731617 0.000000 -0.681715
vn -0.731617 0.000000 -0.681715
vn -0.731617 0.000000 -0.681715
vn -0.731617 0.000000 -0.681715
vn 0.000000 -1.000000 0.000000
vn 0.000000 -1.000000 0.000000
vn 0.000000 -1.000000 0.000000
vn 0.000000 -1.000000 0.000000
vn 1.000000 0.000000 0.000000
vn 1.000000 0.000000 0.000000
vn 1.000000 0.000000 0.000000
vn 1.000000 0.000000 0.000000
vn 0.000000 1.000000 -0.000000
vn 0.000000 1.000000 -0.000000
vn 0.000000 1.000000 -0.000000
vn 0.000000 1.000000 -0.000000
vn 0.000000 1.000000 0.000000
vn 0.000000 1.000000 0.000000
vn 0.000000 1.000000 0.000000
vn 0.000000 1.000000 0.000000
vn 0.980817 0.000000 -0.194931
vn 0.980817 0.000000 -0.194931
vn 0.980817 0.000000 -0.194931
vn 0.980817 0.000000 -0.194931
vn 0.000000 -1.000000 -0.000000
vn 0.000000 -1.000000 -0.000000
vn 0.000000 -1.000000 -0.000000
vn 0.000000 -1.000000 -0.000000
vn -0.609141 0.000000 -0.793062
vn -0.609141 0.000000 -0.793062
vn -0.609141 0.000000 -0.793062
vn -0.609141 0.000000 -0.793062
g Knife1:headusOBJexport
usemtl initialShadingGroup
f 30/1/1 31/2/2 22/3/3 16/4/4
f 3/5/5 24/6/6 17/7/7 5/8/8
f 5/8/9 17/7/10 26/9/11 27/10/12
f 7/11/13 18/12/14 19/13/15 1/14/16
f 34/15/17 25/16/18 6/17/19 4/18/20
f 27/19/21 28/20/22 3/21/23 5/22/24
f 1/14/25 19/13/26 20/23/27 9/24/28
f 34/15/29 4/18/30 11/25/31 33/26/32
f 24/6/33 3/5/34 12/27/35 23/28/36
f 3/21/37 28/20/38 29/29/39 12/30/40
f 9/24/41 20/23/42 21/31/43 13/32/44
f 33/26/45 11/25/46 15/33/47 32/34/48
f 23/28/49 12/27/50 16/4/51 22/3/52
f 12/30/53 29/29/54 30/35/55 16/36/56
f 17/7/57 6/37/58 25/38/59 26/9/60
f 19/13/61 18/12/62 8/39/63 2/40/64
f 20/23/65 19/13/66 2/40/67 10/41/68
f 21/31/69 20/23/70 10/41/71 14/42/72
f 22/3/73 31/2/74 32/43/75 15/44/76
f 11/45/77 23/28/78 22/3/79 15/44/80
f 4/46/81 24/6/82 23/28/83 11/45/84
f 17/7/85 24/6/86 4/46/87 6/37/88
f 58/47/89 57/48/90 59/49/91 60/50/92
f 27/10/93 26/9/94 36/51/95 37/52/96
f 37/53/97 38/54/98 28/20/99 27/19/100
f 29/29/101 28/20/102 38/54/103 39/55/104
f 30/35/105 29/29/106 39/55/107 40/56/108
f 40/57/109 41/58/110 31/2/111 30/1/112
f 32/43/113 31/2/114 41/58/115 42/59/116
f 43/60/117 33/26/118 32/34/119 42/61/120
f 44/62/121 34/15/122 33/26/123 43/60/124
f 44/62/125 35/63/126 25/16/127 34/15/128
f 36/51/129 35/64/130 8/65/131 18/66/132
f 37/52/133 36/51/134 18/66/135 7/67/136
f 7/11/137 1/14/138 38/54/139 37/53/140
f 39/55/141 38/54/142 1/14/143 9/24/144
f 40/56/145 39/55/146 9/24/147 13/32/148
f 13/32/149 21/31/150 41/58/151 40/57/152
f 42/59/153 41/58/154 21/31/155 14/42/156
f 10/41/157 43/60/158 42/61/159 14/42/160
f 2/40/161 44/62/162 43/60/163 10/41/164
f 2/40/165 8/39/166 35/63/167 44/62/168
f 26/68/169 25/69/170 45/70/171 46/71/172
f 25/72/173 35/73/174 47/74/175 45/75/176
f 35/73/177 36/76/178 48/77/179 47/74/180
f 36/76/181 26/78/182 46/79/183 48/77/184
f 46/71/185 45/70/186 56/80/187 53/81/188
f 45/75/189 47/74/190 55/82/191 56/83/192
f 47/74/193 48/77/194 54/84/195 55/82/196
f 48/77/197 46/85/198 53/86/199 54/84/200
f 54/84/201 53/86/202 50/87/203 52/88/204
f 55/82/205 54/84/206 52/88/207 51/89/208
f 56/83/209 55/82/210 51/89/211 49/90/212
f 53/81/213 56/80/214 49/91/215 50/92/216
f 50/92/217 49/91/218 57/93/219 58/94/220
f 49/90/221 51/89/222 59/49/223 57/95/224
f 51/89/225 52/88/226 60/50/227 59/49/228
f 52/88/229 50/87/230 58/47/231 60/50/232
