# This file uses centimeters as units for non-parametric coordinates.

mtllib Lighter.mtl
g default
v -2.014174 -0.500000 4.956872
v 2.014174 -0.500000 4.956872
v -2.014174 0.500000 4.956872
v 2.014174 0.500000 4.956872
v -2.014174 0.500000 -4.956872
v 2.014174 0.500000 -4.956872
v -2.014174 -0.500000 -4.956872
v 2.014174 -0.500000 -4.956872
vt 0.169524 0.993162
vt 0.123293 0.992679
vt 0.169619 0.981571
vt 0.123395 0.981214
vt 0.170503 0.867904
vt 0.124320 0.867534
vt 0.170591 0.856444
vt 0.124420 0.856069
vt 0.171517 0.742838
vt 0.125353 0.742461
vt 0.009709 0.991719
vt 0.009807 0.980261
vt 0.284462 0.994109
vt 0.284558 0.982515
vn 0.000000 0.000000 1.000000
vn 0.000000 0.000000 1.000000
vn 0.000000 0.000000 1.000000
vn 0.000000 0.000000 1.000000
vn 0.000000 1.000000 0.000000
vn 0.000000 1.000000 0.000000
vn 0.000000 1.000000 0.000000
vn 0.000000 1.000000 0.000000
vn 0.000000 0.000000 -1.000000
vn 0.000000 0.000000 -1.000000
vn 0.000000 0.000000 -1.000000
vn 0.000000 0.000000 -1.000000
vn 0.000000 -1.000000 0.000000
vn 0.000000 -1.000000 0.000000
vn 0.000000 -1.000000 0.000000
vn 0.000000 -1.000000 0.000000
vn 1.000000 0.000000 0.000000
vn 1.000000 0.000000 0.000000
vn 1.000000 0.000000 0.000000
vn 1.000000 0.000000 0.000000
vn -1.000000 0.000000 0.000000
vn -1.000000 0.000000 0.000000
vn -1.000000 0.000000 0.000000
vn -1.000000 0.000000 0.000000
g pCube1
usemtl initialShadingGroup
f 1/1/1 2/2/2 4/4/3 3/3/4
f 3/3/5 4/4/6 6/6/7 5/5/8
f 5/5/9 6/6/10 8/8/11 7/7/12
f 7/7/13 8/8/14 2/10/15 1/9/16
f 2/2/17 8/11/18 6/12/19 4/4/20
f 7/13/21 1/1/22 3/3/23 5/14/24
