# This file uses centimeters as units for non-parametric coordinates.

mtllib Lighter.mtl
g default
v 0.310594 -0.020449 -0.100918
v 0.264207 -0.020449 -0.191957
v 0.191957 -0.020449 -0.264207
v 0.100918 -0.020449 -0.310594
v 0.000000 -0.020449 -0.326577
v -0.100918 -0.020449 -0.310594
v 0.326577 -0.020449 0.000000
v 0.310594 0.108317 -0.100918
v 0.264207 0.108317 -0.191957
v 0.191957 0.108317 -0.264207
v 0.100918 0.108317 -0.310594
v 0.000000 0.108317 -0.326577
v -0.100918 0.108317 -0.310594
v 0.326577 0.108317 0.000000
v 0.000000 -0.020449 0.000000
v 0.000000 0.108317 0.000000
v -0.258015 -0.020449 -0.310594
v -0.258015 0.108317 -0.310594
v -0.261960 -0.020449 0.000000
v -0.261960 0.108317 0.000000
v 0.326305 -0.021674 1.112842
v 0.326842 0.107091 1.112550
v -0.000268 -0.020314 1.112040
v 0.000269 0.108451 1.111748
v -0.262225 -0.019223 1.111396
v -0.261688 0.109541 1.111104
vt 0.648603 0.107966
vt 0.626409 0.064408
vt 0.591842 0.029841
vt 0.548284 0.007647
vt 0.500000 -0.000000
vt 0.451716 0.007647
vt 0.656250 0.156250
vt 0.375000 0.312500
vt 0.387500 0.312500
vt 0.400000 0.312500
vt 0.412500 0.312500
vt 0.425000 0.312500
vt 0.437500 0.312500
vt 0.612500 0.312500
vt 0.625000 0.312500
vt 0.375000 0.688440
vt 0.387500 0.688440
vt 0.400000 0.688440
vt 0.412500 0.688440
vt 0.425000 0.688440
vt 0.437500 0.688440
vt 0.612500 0.688440
vt 0.625000 0.688440
vt 0.451716 0.992353
vt 0.500000 1.000000
vt 0.548284 0.992353
vt 0.591841 0.970159
vt 0.626409 0.935591
vt 0.648603 0.892034
vt 0.656250 0.843750
vt 0.500000 0.150000
vt 0.500000 0.837500
vt 0.000000 0.000000
vt 1.000000 0.000000
vt 1.000000 1.000000
vt 0.000000 1.000000
vt 0.000000 0.000000
vt 1.000000 0.000000
vt 1.000000 1.000000
vt 0.000000 1.000000
vt 0.000000 0.000000
vt 1.000000 0.000000
vt 1.000000 1.000000
vt 0.000000 1.000000
vt 0.000000 1.000000
vt 0.480413 1.000000
vt 0.480413 0.000000
vt 0.000000 0.000000
vt 0.000000 0.000000
vt 1.000000 0.000000
vt 1.000000 1.000000
vt 0.000000 1.000000
vt 0.000000 0.000000
vt 1.000000 0.000000
vt 1.000000 1.000000
vt 0.000000 1.000000
vt 0.000000 0.000000
vt 1.000000 0.000000
vt 1.000000 1.000000
vt 0.000000 1.000000
vt 0.000000 0.000000
vt 1.000000 0.000000
vt 1.000000 1.000000
vt 0.000000 1.000000
vt 0.000000 0.000000
vt 1.000000 0.000000
vt 1.000000 1.000000
vt 0.000000 1.000000
vt 0.000000 0.000000
vt 1.000000 0.000000
vt 1.000000 1.000000
vt 0.000000 1.000000
vt 0.020297 0.000000
vt 0.520513 0.000000
vt 0.500216 1.000000
vt 0.000000 1.000000
vt 0.020297 0.000000
vt 0.421538 0.000000
vt 0.401241 1.000000
vt 0.000000 1.000000
vn 0.951057 0.000000 -0.309016
vn 0.809017 0.000000 -0.587785
vn 0.809017 0.000000 -0.587785
vn 0.951057 0.000000 -0.309016
vn 0.587785 0.000000 -0.809017
vn 0.587785 0.000000 -0.809017
vn 0.309017 0.000000 -0.951057
vn 0.309017 0.000000 -0.951057
vn 0.000000 0.000000 -1.000000
vn 0.000000 0.000000 -1.000000
vn -0.061831 0.000000 -0.998087
vn -0.061831 0.000000 -0.998087
vn 0.999912 -0.001911 -0.013160
vn 0.999911 -0.001911 -0.013177
vn 0.000000 -1.000000 0.000000
vn 0.000000 -1.000000 0.000000
vn -0.001876 -0.999998 0.000000
vn 0.000000 -1.000000 -0.000000
vn 0.000000 -1.000000 -0.000000
vn 0.000000 -1.000000 0.000000
vn 0.000000 -1.000000 -0.000000
vn -0.001999 -0.999998 -0.000471
vn 0.000000 1.000000 -0.000000
vn 0.000000 1.000000 0.000000
vn 0.001876 0.999998 0.000000
vn 0.000000 1.000000 -0.000000
vn 0.000000 1.000000 -0.000000
vn 0.000000 1.000000 0.000000
vn 0.000000 1.000000 -0.000000
vn 0.001999 0.999998 0.000471
vn 0.000000 0.000000 -1.000000
vn 0.000000 0.000000 -1.000000
vn -0.001705 -0.999999 0.000501
vn 0.000000 -1.000000 -0.000000
vn 0.000000 1.000000 -0.000000
vn 0.001704 0.999999 -0.000501
vn -0.999995 0.001629 -0.002772
vn -0.999919 0.000000 -0.012700
vn -0.999919 0.000000 -0.012700
vn -0.999995 0.001629 -0.002775
vn 0.999998 -0.002084 0.000001
vn 0.999998 -0.002084 0.000001
vn -0.002081 -0.999998 -0.000490
vn -0.002082 -0.999998 -0.000001
vn 0.002082 0.999998 0.000001
vn 0.002081 0.999998 0.000490
vn -0.002082 -0.999998 0.000612
vn 0.002082 0.999998 -0.000612
vn -0.999998 0.002084 0.000001
vn -0.999998 0.002084 0.000001
vn -0.002448 0.002277 0.999994
vn -0.002448 0.002277 0.999994
vn -0.002448 0.002277 0.999994
vn -0.002448 0.002277 0.999994
vn -0.002449 0.002277 0.999994
vn -0.002449 0.002277 0.999994
vn -0.002449 0.002277 0.999994
vn -0.002449 0.002277 0.999994
s 1
g pCylinder2
usemtl initialShadingGroup
f 1/8/1 2/9/2 9/17/3 8/16/4
f 2/9/2 3/10/5 10/18/6 9/17/3
f 3/10/5 4/11/7 11/19/8 10/18/6
f 4/11/7 5/12/9 12/20/10 11/19/8
f 5/12/9 6/13/11 13/21/12 12/20/10
f 7/14/13 1/15/1 8/23/4 14/22/14
s 2
f 2/2/15 1/1/16 15/31/17
f 3/3/18 2/2/15 15/31/17
f 4/4/19 3/3/18 15/31/17
f 5/5/20 4/4/19 15/31/17
f 6/6/21 5/5/20 15/31/17
f 1/1/16 7/7/22 15/31/17
s 3
f 8/29/23 9/28/24 16/32/25
f 9/28/24 10/27/26 16/32/25
f 10/27/26 11/26/27 16/32/25
f 11/26/27 12/25/28 16/32/25
f 12/25/28 13/24/29 16/32/25
f 14/30/30 8/29/23 16/32/25
s 1
f 13/33/12 6/34/11 17/35/31 18/36/32
s 2
f 6/37/21 15/38/17 19/39/33 17/40/34
s 3
f 16/41/25 13/42/29 18/43/35 20/44/36
s 4
f 20/45/37 18/46/38 17/47/39 19/48/40
s 1
f 7/49/13 14/50/14 22/51/41 21/52/42
s 2
f 15/53/17 7/54/22 21/55/43 23/56/44
s 3
f 14/57/30 16/58/25 24/59/45 22/60/46
s 2
f 19/61/33 15/62/17 23/63/44 25/64/47
s 3
f 16/65/25 20/66/36 26/67/48 24/68/45
s 4
f 20/69/37 19/70/40 25/71/49 26/72/50
s off
f 22/73/51 24/74/52 23/75/53 21/76/54
f 24/77/55 26/78/56 25/79/57 23/80/58
