# This file uses centimeters as units for non-parametric coordinates.

mtllib PortableCharger.mtl
g default
v -7.251787 -0.029122 13.022155
v -8.104008 0.823098 13.874375
v 7.251787 -0.029122 13.022155
v 8.104008 0.823098 13.874375
v -7.251787 3.352369 13.022155
v -8.104008 2.500149 13.874375
v 7.251787 3.352369 13.022155
v 8.104008 2.500149 13.874375
v -8.104008 2.500149 -13.874375
v -7.251787 3.352369 -13.022155
v 8.104008 2.500149 -13.874375
v 7.251787 3.352369 -13.022155
v -7.251787 -0.029122 -13.022155
v -8.104008 0.823098 -13.874375
v 7.251787 -0.029122 -13.022155
v 8.104008 0.823098 -13.874375
vt 0.405373 0.212147
vt 0.557967 0.490061
vt 0.668477 0.154400
vt 0.581047 0.101055
vt 0.944285 0.097179
vt 0.944519 0.119132
vt 0.006123 0.104044
vt 0.368463 0.124490
vt 0.006212 0.125935
vt 0.015325 0.438119
vt 0.265325 0.438119
vt 0.015325 0.463987
vt 0.403540 0.488982
vt 0.390646 0.497933
vt 0.393324 0.202842
vt 0.368345 0.102551
vt 0.379399 0.086651
vt 0.569667 0.085118
vt 0.570741 0.499208
vt 0.559672 0.213001
vt 0.572552 0.204010
vt 0.644717 0.137780
vt 0.668477 0.663640
vt 0.379762 0.140237
vt 0.581250 0.123031
vt 0.570175 0.138928
vt 0.953398 0.156386
vt 0.977256 0.140027
vt 0.969374 0.683777
vt 0.647484 0.682864
vt 0.948566 0.664399
vt 0.028470 0.482577
vt 0.265325 0.463987
vt 0.252180 0.482577
vn 0.000000 0.000000 1.000000
vn 0.000000 0.000000 1.000000
vn 0.000000 0.000000 1.000000
vn 0.000000 0.000000 1.000000
vn 0.000000 0.000000 -1.000000
vn 0.000000 0.000000 -1.000000
vn 0.000000 0.000000 -1.000000
vn 0.000000 0.000000 -1.000000
vn 1.000000 0.000000 0.000000
vn 1.000000 0.000000 0.000000
vn 1.000000 0.000000 0.000000
vn 1.000000 0.000000 0.000000
vn -1.000000 0.000000 0.000000
vn -1.000000 0.000000 0.000000
vn -1.000000 0.000000 0.000000
vn -1.000000 0.000000 0.000000
vn 0.000000 -1.000000 0.000000
vn 0.000000 -1.000000 0.000000
vn 0.000000 -1.000000 0.000000
vn 0.000000 -1.000000 0.000000
vn 0.000000 1.000000 0.000000
vn 0.000000 1.000000 0.000000
vn 0.000000 1.000000 0.000000
vn 0.000000 1.000000 0.000000
vn -0.707106 -0.707107 0.000000
vn -0.707106 -0.707107 0.000000
vn -0.707106 -0.707107 0.000000
vn -0.707106 -0.707107 0.000000
vn 0.000000 -0.707107 0.707107
vn 0.000000 -0.707107 0.707107
vn 0.000000 -0.707107 0.707107
vn 0.000000 -0.707107 0.707107
vn 0.707106 -0.707107 0.000000
vn 0.707106 -0.707107 0.000000
vn 0.707106 -0.707107 0.000000
vn 0.707106 -0.707107 0.000000
vn -0.707106 0.707107 0.000000
vn -0.707106 0.707107 0.000000
vn -0.707106 0.707107 0.000000
vn -0.707106 0.707107 0.000000
vn 0.000000 0.707107 0.707107
vn 0.000000 0.707107 0.707107
vn 0.000000 0.707107 0.707107
vn 0.000000 0.707107 0.707107
vn 0.707106 0.707107 0.000000
vn 0.707106 0.707107 0.000000
vn 0.707106 0.707107 0.000000
vn 0.707106 0.707107 0.000000
vn 0.000000 0.707107 -0.707107
vn 0.000000 0.707107 -0.707107
vn 0.000000 0.707107 -0.707107
vn 0.000000 0.707107 -0.707107
vn 0.000000 -0.707107 -0.707107
vn 0.000000 -0.707107 -0.707107
vn 0.000000 -0.707107 -0.707107
vn 0.000000 -0.707107 -0.707107
g pCube1
usemtl initialShadingGroup
f 2/16/1 4/4/2 8/25/3 6/8/4
f 9/10/5 11/11/6 16/33/7 14/12/8
f 4/4/9 16/5/10 11/6/11 8/25/12
f 14/7/13 2/16/14 6/8/15 9/9/16
f 13/1/17 15/20/18 3/2/19 1/13/20
f 7/27/21 12/31/22 10/23/23 5/3/24
f 1/13/25 2/14/26 14/15/27 13/1/28
f 2/16/29 1/17/30 3/18/31 4/4/32
f 4/19/33 3/2/34 15/20/35 16/21/36
f 6/22/37 5/3/38 10/23/39 9/30/40
f 5/24/41 6/8/42 8/25/43 7/26/44
f 7/27/45 8/28/46 11/29/47 12/31/48
f 9/30/49 10/23/50 12/31/51 11/29/52
f 13/32/53 14/12/54 16/33/55 15/34/56
