# This file uses centimeters as units for non-parametric coordinates.

mtllib SprayCan.mtl
g default
v 0.447634 -0.006008 -0.145445
v 0.380780 -0.006008 -0.276653
v 0.276653 -0.006008 -0.380781
v 0.145445 -0.006008 -0.447634
v -0.000000 -0.006008 -0.470671
v -0.145445 -0.006008 -0.447634
v -0.276653 -0.006008 -0.380781
v -0.380780 -0.006008 -0.276653
v -0.447634 -0.006008 -0.145445
v -0.470670 -0.006008 -0.000000
v -0.447634 -0.006008 0.145445
v -0.380780 -0.006008 0.276653
v -0.276653 -0.006008 0.380780
v -0.145445 -0.006008 0.447634
v -0.000000 -0.006008 0.470670
v 0.145445 -0.006008 0.447634
v 0.276653 -0.006008 0.380780
v 0.380780 -0.006008 0.276653
v 0.447634 -0.006008 0.145445
v 0.470670 -0.006008 -0.000000
v 0.447634 1.717053 -0.145445
v 0.380780 1.717053 -0.276653
v 0.276653 1.717053 -0.380781
v 0.145445 1.717053 -0.447634
v -0.000000 1.717053 -0.470671
v -0.145445 1.717053 -0.447634
v -0.276653 1.717053 -0.380781
v -0.380780 1.717053 -0.276653
v -0.447634 1.717053 -0.145445
v -0.470670 1.717053 -0.000000
v -0.447634 1.717053 0.145445
v -0.380780 1.717053 0.276653
v -0.276653 1.717053 0.380780
v -0.145445 1.717053 0.447634
v -0.000000 1.717053 0.470670
v 0.145445 1.717053 0.447634
v 0.276653 1.717053 0.380780
v 0.380780 1.717053 0.276653
v 0.447634 1.717053 0.145445
v 0.470670 1.717053 -0.000000
v -0.000000 -0.006008 -0.000000
v 0.214716 1.933000 -0.069766
v 0.182648 1.933000 -0.132702
v 0.132702 1.933000 -0.182648
v 0.069765 1.933000 -0.214716
v -0.000000 1.933000 -0.225766
v -0.069765 1.933000 -0.214716
v -0.132702 1.933000 -0.182648
v -0.182648 1.933000 -0.132702
v -0.214716 1.933000 -0.069766
v -0.225766 1.933000 -0.000000
v -0.214716 1.933000 0.069765
v -0.182648 1.933000 0.132702
v -0.132702 1.933000 0.182648
v -0.069765 1.933000 0.214715
v -0.000000 1.933000 0.225765
v 0.069765 1.933000 0.214715
v 0.132701 1.933000 0.182648
v 0.182648 1.933000 0.132701
v 0.214715 1.933000 0.069765
v 0.225765 1.933000 -0.000000
v 0.127413 1.933000 -0.041399
v 0.108384 1.933000 -0.078746
v 0.078746 1.933000 -0.108384
v 0.041399 1.933000 -0.127413
v -0.000000 1.933000 -0.133970
v -0.041399 1.933000 -0.127413
v -0.078746 1.933000 -0.108384
v -0.108384 1.933000 -0.078746
v -0.127413 1.933000 -0.041399
v -0.133970 1.933000 -0.000000
v -0.127413 1.933000 0.041399
v -0.108384 1.933000 0.078746
v -0.078746 1.933000 0.108384
v -0.041399 1.933000 0.127413
v -0.000000 1.933000 0.133970
v 0.041399 1.933000 0.127413
v 0.078746 1.933000 0.108384
v 0.108384 1.933000 0.078746
v 0.127413 1.933000 0.041399
v 0.133970 1.933000 -0.000000
v 0.127413 2.121611 -0.041399
v 0.108384 2.121611 -0.078746
v -0.000000 2.121611 -0.000000
v 0.078746 2.121611 -0.108385
v 0.041399 2.121611 -0.127414
v -0.000000 2.121611 -0.133970
v -0.041399 2.121611 -0.127413
v -0.078746 2.121611 -0.108384
v -0.108384 2.121611 -0.078745
v -0.127413 2.121611 -0.041399
v -0.133970 2.121611 -0.000000
v -0.127413 2.121611 0.041399
v -0.108384 2.121611 0.078746
v -0.078746 2.121611 0.108384
v -0.041399 2.121611 0.127413
v -0.000000 2.121611 0.133970
v 0.041399 2.121611 0.127413
v 0.078746 2.121611 0.108384
v 0.108384 2.121611 0.078745
v 0.127413 2.121611 0.041399
v 0.133970 2.121611 -0.000000
vt 0.648603 0.107966
vt 0.626409 0.064408
vt 0.591842 0.029841
vt 0.548284 0.007647
vt 0.500000 -0.000000
vt 0.451716 0.007647
vt 0.408159 0.029841
vt 0.373591 0.064409
vt 0.351397 0.107966
vt 0.343750 0.156250
vt 0.351397 0.204534
vt 0.373591 0.248091
vt 0.408159 0.282659
vt 0.451716 0.304853
vt 0.500000 0.312500
vt 0.548284 0.304853
vt 0.591841 0.282659
vt 0.626409 0.248091
vt 0.648603 0.204534
vt 0.656250 0.156250
vt 0.375000 0.312500
vt 0.387500 0.312500
vt 0.400000 0.312500
vt 0.412500 0.312500
vt 0.425000 0.312500
vt 0.437500 0.312500
vt 0.450000 0.312500
vt 0.462500 0.312500
vt 0.475000 0.312500
vt 0.487500 0.312500
vt 0.500000 0.312500
vt 0.512500 0.312500
vt 0.525000 0.312500
vt 0.537500 0.312500
vt 0.550000 0.312500
vt 0.562500 0.312500
vt 0.575000 0.312500
vt 0.587500 0.312500
vt 0.600000 0.312500
vt 0.612500 0.312500
vt 0.625000 0.312500
vt 0.375000 0.688440
vt 0.387500 0.688440
vt 0.400000 0.688440
vt 0.412500 0.688440
vt 0.425000 0.688440
vt 0.437500 0.688440
vt 0.450000 0.688440
vt 0.462500 0.688440
vt 0.475000 0.688440
vt 0.487500 0.688440
vt 0.500000 0.688440
vt 0.512500 0.688440
vt 0.525000 0.688440
vt 0.537500 0.688440
vt 0.550000 0.688440
vt 0.562500 0.688440
vt 0.575000 0.688440
vt 0.587500 0.688440
vt 0.600000 0.688440
vt 0.612500 0.688440
vt 0.625000 0.688440
vt 0.648603 0.795466
vt 0.626409 0.751908
vt 0.591842 0.717341
vt 0.548284 0.695147
vt 0.500000 0.687500
vt 0.451716 0.695147
vt 0.408159 0.717341
vt 0.373591 0.751909
vt 0.351397 0.795466
vt 0.343750 0.843750
vt 0.351397 0.892034
vt 0.373591 0.935591
vt 0.408159 0.970159
vt 0.451716 0.992353
vt 0.500000 1.000000
vt 0.548284 0.992353
vt 0.591841 0.970159
vt 0.626409 0.935591
vt 0.648603 0.892034
vt 0.656250 0.843750
vt 0.500000 0.150000
vt 0.500000 0.837500
vt 0.648603 0.892034
vt 0.626409 0.935591
vt 0.591841 0.970159
vt 0.548284 0.992353
vt 0.500000 1.000000
vt 0.451716 0.992353
vt 0.408159 0.970159
vt 0.373591 0.935591
vt 0.351397 0.892034
vt 0.343750 0.843750
vt 0.351397 0.795466
vt 0.373591 0.751909
vt 0.408159 0.717341
vt 0.451716 0.695147
vt 0.500000 0.687500
vt 0.548284 0.695147
vt 0.591842 0.717341
vt 0.626409 0.751908
vt 0.648603 0.795466
vt 0.656250 0.843750
vt 0.648603 0.892034
vt 0.626409 0.935591
vt 0.591841 0.970159
vt 0.548284 0.992353
vt 0.500000 1.000000
vt 0.451716 0.992353
vt 0.408159 0.970159
vt 0.373591 0.935591
vt 0.351397 0.892034
vt 0.343750 0.843750
vt 0.351397 0.795466
vt 0.373591 0.751909
vt 0.408159 0.717341
vt 0.451716 0.695147
vt 0.500000 0.687500
vt 0.548284 0.695147
vt 0.591842 0.717341
vt 0.626409 0.751908
vt 0.648603 0.795466
vt 0.656250 0.843750
vt 0.648603 0.892034
vt 0.626409 0.935591
vt 0.591841 0.970159
vt 0.548284 0.992353
vt 0.500000 1.000000
vt 0.451716 0.992353
vt 0.408159 0.970159
vt 0.373591 0.935591
vt 0.351397 0.892034
vt 0.343750 0.843750
vt 0.351397 0.795466
vt 0.373591 0.751909
vt 0.408159 0.717341
vt 0.451716 0.695147
vt 0.500000 0.687500
vt 0.548284 0.695147
vt 0.591842 0.717341
vt 0.626409 0.751908
vt 0.648603 0.795466
vt 0.656250 0.843750
vn 0.951057 0.000000 -0.309016
vn 0.809017 0.000000 -0.587785
vn 0.805789 0.089239 -0.585440
vn 0.947262 0.089239 -0.307783
vn 0.587785 0.000000 -0.809017
vn 0.585440 0.089239 -0.805789
vn 0.309017 0.000000 -0.951057
vn 0.307784 0.089239 -0.947262
vn -0.000000 0.000000 -1.000000
vn -0.000000 0.089239 -0.996010
vn -0.309017 0.000000 -0.951056
vn -0.307784 0.089239 -0.947262
vn -0.587785 0.000000 -0.809017
vn -0.585440 0.089239 -0.805789
vn -0.809017 0.000000 -0.587785
vn -0.805789 0.089239 -0.585440
vn -0.951057 0.000000 -0.309017
vn -0.947262 0.089239 -0.307784
vn -1.000000 0.000000 0.000000
vn -0.996010 0.089239 0.000000
vn -0.951057 0.000000 0.309017
vn -0.947262 0.089239 0.307784
vn -0.809017 0.000000 0.587785
vn -0.805789 0.089239 0.585440
vn -0.587785 0.000000 0.809017
vn -0.585440 0.089239 0.805789
vn -0.309017 0.000000 0.951057
vn -0.307784 0.089239 0.947262
vn 0.000000 0.000000 1.000000
vn 0.000000 0.089239 0.996010
vn 0.309017 0.000000 0.951057
vn 0.307784 0.089239 0.947262
vn 0.587785 0.000000 0.809017
vn 0.585440 0.089239 0.805789
vn 0.809017 0.000000 0.587785
vn 0.805789 0.089239 0.585440
vn 0.951057 0.000000 0.309017
vn 0.947262 0.089239 0.307784
vn 1.000000 0.000000 0.000001
vn 0.996010 0.089239 0.000001
vn 0.000000 -1.000000 0.000000
vn 0.000000 -1.000000 0.000000
vn 0.000000 -1.000000 -0.000000
vn 0.000000 -1.000000 -0.000000
vn 0.000000 -1.000000 -0.000000
vn 0.000000 -1.000000 0.000000
vn 0.000000 -1.000000 0.000000
vn 0.000000 -1.000000 0.000000
vn 0.000000 -1.000000 0.000000
vn 0.000000 -1.000000 0.000000
vn 0.000000 -1.000000 0.000000
vn 0.000000 -1.000000 0.000000
vn 0.000000 -1.000000 0.000000
vn 0.000000 -1.000000 0.000000
vn 0.000000 -1.000000 0.000000
vn 0.000000 -1.000000 0.000000
vn 0.000000 -1.000000 0.000000
vn 0.000000 -1.000000 0.000000
vn 0.000000 -1.000000 0.000000
vn 0.000000 -1.000000 0.000000
vn 0.000000 -1.000000 0.000000
vn -0.000002 1.000000 -0.000005
vn -0.000001 1.000000 -0.000005
vn -0.000000 1.000000 -0.000000
vn -0.000001 1.000000 0.000000
vn -0.000001 1.000000 0.000000
vn 0.000000 1.000000 0.000000
vn 0.000001 1.000000 0.000000
vn 0.000001 1.000000 -0.000002
vn 0.000001 1.000000 0.000002
vn 0.000002 1.000000 0.000005
vn 0.000002 1.000000 0.000000
vn 0.000002 1.000000 -0.000005
vn 0.000001 1.000000 0.000000
vn 0.000001 1.000000 0.000002
vn 0.000001 1.000000 -0.000001
vn 0.000000 1.000000 -0.000001
vn -0.000001 1.000000 -0.000001
vn -0.000001 1.000000 0.000001
vn -0.000001 1.000000 0.000000
vn -0.000002 1.000000 0.000000
vn -0.000002 1.000000 0.000000
vn 0.535060 0.750060 -0.388743
vn 0.629001 0.750060 -0.204374
vn 0.388743 0.750060 -0.535060
vn 0.204374 0.750060 -0.629001
vn -0.000000 0.750060 -0.661370
vn -0.204375 0.750060 -0.629000
vn -0.388743 0.750060 -0.535060
vn -0.535060 0.750060 -0.388743
vn -0.629000 0.750060 -0.204375
vn -0.661370 0.750060 0.000000
vn -0.629000 0.750060 0.204375
vn -0.535060 0.750060 0.388743
vn -0.388743 0.750060 0.535060
vn -0.204375 0.750060 0.629000
vn -0.000000 0.750060 0.661370
vn 0.204375 0.750060 0.629000
vn 0.388743 0.750060 0.535060
vn 0.535060 0.750060 0.388743
vn 0.629000 0.750060 0.204375
vn 0.661370 0.750060 0.000000
vn 0.000000 1.000000 0.000000
vn 0.000000 1.000000 0.000000
vn 0.000000 1.000000 0.000000
vn 0.000000 1.000000 0.000000
vn 0.000000 1.000000 0.000000
vn 0.000000 1.000000 0.000000
vn 0.000000 1.000000 0.000000
vn 0.000000 1.000000 0.000000
vn 0.000000 1.000000 0.000001
vn 0.000000 1.000000 0.000001
vn 0.000000 1.000000 0.000001
vn 0.000000 1.000000 0.000001
vn 0.000000 1.000000 0.000001
vn 0.000000 1.000000 0.000001
vn 0.000000 1.000000 0.000001
vn 0.000000 1.000000 0.000001
vn 0.000000 1.000000 -0.000000
vn 0.000000 1.000000 -0.000000
vn 0.000000 1.000000 -0.000000
vn 0.000000 1.000000 -0.000000
vn 0.000000 1.000000 0.000000
vn 0.000000 1.000000 0.000000
vn 0.000000 1.000000 0.000000
vn 0.000000 1.000000 0.000000
vn 0.000000 1.000000 0.000000
vn 0.000000 1.000000 0.000000
vn 0.000000 1.000000 0.000000
vn 0.000000 1.000000 0.000000
vn 0.000000 1.000000 0.000000
vn 0.000000 1.000000 0.000000
vn 0.000000 1.000000 0.000000
vn 0.000000 1.000000 0.000000
vn 0.000000 1.000000 0.000003
vn 0.000000 1.000000 0.000003
vn 0.000000 1.000000 0.000003
vn 0.000000 1.000000 0.000003
vn 0.000000 1.000000 -0.000003
vn 0.000000 1.000000 -0.000003
vn 0.000000 1.000000 -0.000003
vn 0.000000 1.000000 -0.000003
vn 0.000000 1.000000 0.000000
vn 0.000000 1.000000 0.000000
vn 0.000000 1.000000 0.000000
vn 0.000000 1.000000 0.000000
vn 0.000000 1.000000 0.000000
vn 0.000000 1.000000 0.000000
vn 0.000000 1.000000 0.000000
vn 0.000000 1.000000 0.000000
vn 0.000000 1.000000 -0.000001
vn 0.000000 1.000000 -0.000001
vn 0.000000 1.000000 -0.000001
vn 0.000000 1.000000 -0.000001
vn 0.000000 1.000000 -0.000001
vn 0.000000 1.000000 -0.000001
vn 0.000000 1.000000 -0.000001
vn 0.000000 1.000000 -0.000001
vn 0.000000 1.000000 0.000001
vn 0.000000 1.000000 0.000001
vn 0.000000 1.000000 0.000001
vn 0.000000 1.000000 0.000001
vn 0.000000 1.000000 -0.000001
vn 0.000000 1.000000 -0.000001
vn 0.000000 1.000000 -0.000001
vn 0.000000 1.000000 -0.000001
vn 0.000000 1.000000 0.000000
vn 0.000000 1.000000 0.000000
vn 0.000000 1.000000 0.000000
vn 0.000000 1.000000 0.000000
vn 0.000000 1.000000 0.000000
vn 0.000000 1.000000 0.000000
vn 0.000000 1.000000 0.000000
vn 0.000000 1.000000 0.000000
vn 0.000000 1.000000 -0.000003
vn 0.000000 1.000000 -0.000003
vn 0.000000 1.000000 -0.000003
vn 0.000000 1.000000 -0.000003
vn 0.000000 1.000000 0.000000
vn 0.000000 1.000000 0.000000
vn 0.000000 1.000000 0.000000
vn 0.000000 1.000000 0.000000
vn 0.951057 0.000000 -0.309015
vn 0.809019 -0.000000 -0.587782
vn 0.809019 -0.000000 -0.587782
vn 0.951057 0.000000 -0.309015
vn 0.587785 -0.000001 -0.809017
vn 0.587785 -0.000001 -0.809018
vn 0.309015 -0.000002 -0.951057
vn 0.309014 -0.000002 -0.951057
vn -0.000003 -0.000001 -1.000000
vn -0.000003 -0.000001 -1.000000
vn -0.309020 0.000001 -0.951056
vn -0.309020 0.000001 -0.951056
vn -0.587786 0.000001 -0.809017
vn -0.587786 0.000001 -0.809017
vn -0.809017 0.000001 -0.587786
vn -0.809017 0.000001 -0.587785
vn -0.951056 0.000000 -0.309018
vn -0.951056 0.000000 -0.309018
vn -1.000000 0.000000 0.000000
vn -1.000000 0.000000 0.000000
vn -0.951056 0.000000 0.309018
vn -0.951056 0.000000 0.309018
vn -0.809018 0.000000 0.587785
vn -0.809018 0.000000 0.587785
vn -0.587785 -0.000000 0.809017
vn -0.587785 -0.000000 0.809017
vn -0.309017 -0.000001 0.951056
vn -0.309017 -0.000001 0.951056
vn -0.000000 -0.000001 1.000000
vn -0.000000 -0.000001 1.000000
vn 0.309018 -0.000001 0.951056
vn 0.309018 -0.000001 0.951056
vn 0.587787 0.000000 0.809016
vn 0.587787 0.000000 0.809016
vn 0.809017 0.000001 0.587785
vn 0.809018 0.000001 0.587784
vn 0.951056 0.000000 0.309018
vn 0.951056 0.000000 0.309018
vn 1.000000 0.000000 0.000001
vn 1.000000 0.000000 0.000001
s 1
g pCylinder1
usemtl initialShadingGroup
f 1/21/1 2/22/2 22/43/3 21/42/4
f 2/22/2 3/23/5 23/44/6 22/43/3
f 3/23/5 4/24/7 24/45/8 23/44/6
f 4/24/7 5/25/9 25/46/10 24/45/8
f 5/25/9 6/26/11 26/47/12 25/46/10
f 6/26/11 7/27/13 27/48/14 26/47/12
f 7/27/13 8/28/15 28/49/16 27/48/14
f 8/28/15 9/29/17 29/50/18 28/49/16
f 9/29/17 10/30/19 30/51/20 29/50/18
f 10/30/19 11/31/21 31/52/22 30/51/20
f 11/31/21 12/32/23 32/53/24 31/52/22
f 12/32/23 13/33/25 33/54/26 32/53/24
f 13/33/25 14/34/27 34/55/28 33/54/26
f 14/34/27 15/35/29 35/56/30 34/55/28
f 15/35/29 16/36/31 36/57/32 35/56/30
f 16/36/31 17/37/33 37/58/34 36/57/32
f 17/37/33 18/38/35 38/59/36 37/58/34
f 18/38/35 19/39/37 39/60/38 38/59/36
f 19/39/37 20/40/39 40/61/40 39/60/38
f 20/40/39 1/41/1 21/62/4 40/61/40
s 2
f 2/2/41 1/1/42 41/83/43
f 3/3/44 2/2/41 41/83/43
f 4/4/45 3/3/44 41/83/43
f 5/5/46 4/4/45 41/83/43
f 6/6/47 5/5/46 41/83/43
f 7/7/48 6/6/47 41/83/43
f 8/8/49 7/7/48 41/83/43
f 9/9/50 8/8/49 41/83/43
f 10/10/51 9/9/50 41/83/43
f 11/11/52 10/10/51 41/83/43
f 12/12/53 11/11/52 41/83/43
f 13/13/54 12/12/53 41/83/43
f 14/14/55 13/13/54 41/83/43
f 15/15/56 14/14/55 41/83/43
f 16/16/57 15/15/56 41/83/43
f 17/17/58 16/16/57 41/83/43
f 18/18/59 17/17/58 41/83/43
f 19/19/60 18/18/59 41/83/43
f 20/20/61 19/19/60 41/83/43
f 1/1/42 20/20/61 41/83/43
s 3
f 82/125/62 83/126/63 84/84/64
f 83/126/63 85/127/65 84/84/64
f 85/127/65 86/128/66 84/84/64
f 86/128/66 87/129/67 84/84/64
f 87/129/67 88/130/68 84/84/64
f 88/130/68 89/131/69 84/84/64
f 89/131/69 90/132/70 84/84/64
f 90/132/70 91/133/71 84/84/64
f 91/133/71 92/134/72 84/84/64
f 92/134/72 93/135/73 84/84/64
f 93/135/73 94/136/74 84/84/64
f 94/136/74 95/137/75 84/84/64
f 95/137/75 96/138/76 84/84/64
f 96/138/76 97/139/77 84/84/64
f 97/139/77 98/140/78 84/84/64
f 98/140/78 99/141/79 84/84/64
f 99/141/79 100/142/80 84/84/64
f 100/142/80 101/143/81 84/84/64
f 101/143/81 102/144/82 84/84/64
f 102/144/82 82/125/62 84/84/64
s 1
f 21/81/4 22/80/3 43/86/83 42/85/84
f 22/80/3 23/79/6 44/87/85 43/86/83
f 23/79/6 24/78/8 45/88/86 44/87/85
f 24/78/8 25/77/10 46/89/87 45/88/86
f 25/77/10 26/76/12 47/90/88 46/89/87
f 26/76/12 27/75/14 48/91/89 47/90/88
f 27/75/14 28/74/16 49/92/90 48/91/89
f 28/74/16 29/73/18 50/93/91 49/92/90
f 29/73/18 30/72/20 51/94/92 50/93/91
f 30/72/20 31/71/22 52/95/93 51/94/92
f 31/71/22 32/70/24 53/96/94 52/95/93
f 32/70/24 33/69/26 54/97/95 53/96/94
f 33/69/26 34/68/28 55/98/96 54/97/95
f 34/68/28 35/67/30 56/99/97 55/98/96
f 35/67/30 36/66/32 57/100/98 56/99/97
f 36/66/32 37/65/34 58/101/99 57/100/98
f 37/65/34 38/64/36 59/102/100 58/101/99
f 38/64/36 39/63/38 60/103/101 59/102/100
f 39/63/38 40/82/40 61/104/102 60/103/101
f 40/82/40 21/81/4 42/85/84 61/104/102
s off
f 42/85/103 43/86/104 63/106/105 62/105/106
f 43/86/107 44/87/108 64/107/109 63/106/110
f 44/87/111 45/88/112 65/108/113 64/107/114
f 45/88/115 46/89/116 66/109/117 65/108/118
f 46/89/119 47/90/120 67/110/121 66/109/122
f 47/90/123 48/91/124 68/111/125 67/110/126
f 48/91/127 49/92/128 69/112/129 68/111/130
f 49/92/131 50/93/132 70/113/133 69/112/134
f 50/93/135 51/94/136 71/114/137 70/113/138
f 51/94/139 52/95/140 72/115/141 71/114/142
f 52/95/143 53/96/144 73/116/145 72/115/146
f 53/96/147 54/97/148 74/117/149 73/116/150
f 54/97/151 55/98/152 75/118/153 74/117/154
f 55/98/155 56/99/156 76/119/157 75/118/158
f 56/99/159 57/100/160 77/120/161 76/119/162
f 57/100/163 58/101/164 78/121/165 77/120/166
f 58/101/167 59/102/168 79/122/169 78/121/170
f 59/102/171 60/103/172 80/123/173 79/122/174
f 60/103/175 61/104/176 81/124/177 80/123/178
f 61/104/179 42/85/180 62/105/181 81/124/182
s 4
f 62/105/183 63/106/184 83/126/185 82/125/186
f 63/106/184 64/107/187 85/127/188 83/126/185
f 64/107/187 65/108/189 86/128/190 85/127/188
f 65/108/189 66/109/191 87/129/192 86/128/190
f 66/109/191 67/110/193 88/130/194 87/129/192
f 67/110/193 68/111/195 89/131/196 88/130/194
f 68/111/195 69/112/197 90/132/198 89/131/196
f 69/112/197 70/113/199 91/133/200 90/132/198
f 70/113/199 71/114/201 92/134/202 91/133/200
f 71/114/201 72/115/203 93/135/204 92/134/202
f 72/115/203 73/116/205 94/136/206 93/135/204
f 73/116/205 74/117/207 95/137/208 94/136/206
f 74/117/207 75/118/209 96/138/210 95/137/208
f 75/118/209 76/119/211 97/139/212 96/138/210
f 76/119/211 77/120/213 98/140/214 97/139/212
f 77/120/213 78/121/215 99/141/216 98/140/214
f 78/121/215 79/122/217 100/142/218 99/141/216
f 79/122/217 80/123/219 101/143/220 100/142/218
f 80/123/219 81/124/221 102/144/222 101/143/220
f 81/124/221 62/105/183 82/125/186 102/144/222
