# This file uses centimeters as units for non-parametric coordinates.

mtllib table.mtl
g default
v -27.277073 6.210884 45.548012
v -27.526806 6.210884 45.057892
v -27.915768 6.210884 44.668930
v -28.405884 6.210884 44.419205
v -28.949188 6.210884 44.333153
v -29.492493 6.210884 44.419205
v -29.982609 6.210884 44.668930
v -30.371571 6.210884 45.057892
v -30.621304 6.210884 45.548012
v -30.707352 6.210884 46.091316
v -30.621304 6.210884 46.634621
v -30.371571 6.210884 47.124737
v -29.982609 6.210884 47.513699
v -29.492493 6.210884 47.763428
v -28.949188 6.210884 47.849480
v -28.405884 6.210884 47.763428
v -27.915768 6.210884 47.513699
v -27.526806 6.210884 47.124737
v -27.277077 6.210884 46.634621
v -27.191025 6.210884 46.091316
v -30.621304 1.519517 45.548012
v -30.371571 1.519517 45.057892
v -29.982609 1.519517 44.668930
v -29.492493 1.519517 44.419205
v -28.949188 1.519517 44.333153
v -28.405884 1.519517 44.419205
v -27.915768 1.519517 44.668930
v -27.526806 1.519517 45.057892
v -27.277073 1.519517 45.548012
v -27.191025 1.519517 46.091316
v -27.277077 1.519517 46.634621
v -27.526806 1.519517 47.124737
v -27.915768 1.519517 47.513699
v -28.405884 1.519517 47.763428
v -28.949188 1.519517 47.849480
v -29.492493 1.519517 47.763428
v -29.982609 1.519517 47.513699
v -30.371571 1.519517 47.124737
v -30.621304 1.519517 46.634621
v -30.707352 1.519517 46.091316
v -26.091202 -0.118505 45.162701
v -26.518040 -0.118505 44.324982
v -26.518040 1.519517 44.324982
v -26.091202 1.519517 45.162701
v -27.182858 -0.118505 43.660168
v -27.182858 1.519517 43.660168
v -28.020573 -0.118505 43.233330
v -28.020573 1.519517 43.233330
v -28.949188 -0.118505 43.086250
v -28.949188 1.519517 43.086250
v -29.877804 -0.118505 43.233330
v -29.877804 1.519517 43.233330
v -30.715519 -0.118505 43.660168
v -30.715519 1.519517 43.660168
v -31.380337 -0.118505 44.324982
v -31.380337 1.519517 44.324982
v -31.807175 -0.118505 45.162697
v -31.807175 1.519517 45.162697
v -31.954254 -0.118505 46.091316
v -31.954254 1.519517 46.091316
v -31.807175 -0.118505 47.019928
v -31.807175 1.519517 47.019928
v -31.380333 -0.118505 47.857643
v -31.380333 1.519517 47.857643
v -30.715519 -0.118505 48.522461
v -30.715519 1.519517 48.522461
v -29.877804 -0.118505 48.949299
v -29.877804 1.519517 48.949299
v -28.949188 -0.118505 49.096375
v -28.949188 1.519517 49.096375
v -28.020573 -0.118505 48.949299
v -28.020573 1.519517 48.949299
v -27.182858 -0.118505 48.522461
v -27.182858 1.519517 48.522461
v -26.518044 -0.118505 47.857643
v -26.518044 1.519517 47.857643
v -26.091202 -0.118505 47.019928
v -26.091202 1.519517 47.019928
v -25.944122 -0.118505 46.091316
v -25.944122 1.519517 46.091316
v -16.226170 5.960991 41.983528
v -18.116516 5.960991 38.273514
v -21.060802 5.960991 35.329231
v -24.770817 5.960991 33.438881
v -28.883404 5.960991 32.787514
v -32.995987 5.960991 33.438881
v -36.706001 5.960991 35.329231
v -39.650288 5.960991 38.273518
v -41.540634 5.960991 41.983532
v -42.192001 5.960991 46.096115
v -41.540634 5.960991 50.208698
v -39.650284 5.960991 53.918713
v -36.705997 5.960991 56.862999
v -32.995983 5.960991 58.753342
v -28.883404 5.960991 59.404709
v -24.770821 5.960991 58.753342
v -21.060806 5.960991 56.862995
v -18.116524 5.960991 53.918709
v -16.226177 5.960991 50.208698
v -15.574809 5.960991 46.096115
v -16.226170 6.604403 41.983528
v -18.116516 6.604403 38.273514
v -21.060802 6.604403 35.329231
v -24.770817 6.604403 33.438881
v -28.883404 6.604403 32.787514
v -32.995987 6.604403 33.438881
v -36.706001 6.604403 35.329231
v -39.650288 6.604403 38.273518
v -41.540634 6.604403 41.983532
v -42.192001 6.604403 46.096115
v -41.540634 6.604403 50.208698
v -39.650284 6.604403 53.918713
v -36.705997 6.604403 56.862999
v -32.995983 6.604403 58.753342
v -28.883404 6.604403 59.404709
v -24.770821 6.604403 58.753342
v -21.060806 6.604403 56.862995
v -18.116524 6.604403 53.918709
v -16.226177 6.604403 50.208698
v -15.574809 6.604403 46.096115
v -28.883404 5.960991 46.096115
v -28.883404 6.604403 46.096115
vt 0.378895 1.126043
vt 0.387008 1.126043
vt 0.386326 1.140712
vt 0.378895 1.140712
vt 0.395220 1.126043
vt 0.394351 1.140712
vt 0.403119 1.126043
vt 0.402041 1.140712
vt 0.410692 1.126043
vt 0.409485 1.140712
vt 0.417987 1.126043
vt 0.416720 1.140712
vt 0.425041 1.126043
vt 0.423778 1.140712
vt 0.431838 1.126043
vt 0.430659 1.140712
vt 0.438399 1.126043
vt 0.437382 1.140712
vt 0.444755 1.126043
vt 0.443973 1.140712
vt 0.450976 1.126043
vt 0.450461 1.140712
vt 0.457150 1.126043
vt 0.456890 1.140712
vt 0.463349 1.126043
vt 0.463302 1.140712
vt 0.469621 1.126043
vt 0.469718 1.140712
vt 0.475982 1.126043
vt 0.476158 1.140712
vt 0.482451 1.126043
vt 0.482643 1.140712
vt 0.489018 1.126043
vt 0.489172 1.140712
vt 0.495715 1.126043
vt 0.495776 1.140712
vt 0.502604 1.126043
vt 0.502494 1.140712
vt 0.509689 1.126043
vt 0.509411 1.140712
vt 0.516927 1.126043
vt 0.516751 1.140712
vt 0.429908 1.153094
vt 0.436730 1.153094
vt 0.437686 1.210496
vt 0.430800 1.210496
vt 0.422987 1.153094
vt 0.423828 1.210496
vt 0.415965 1.153094
vt 0.416763 1.210496
vt 0.408838 1.153094
vt 0.409604 1.210496
vt 0.401631 1.153094
vt 0.402344 1.210496
vt 0.394363 1.153094
vt 0.394978 1.210496
vt 0.387085 1.153094
vt 0.387500 1.210496
vt 0.378895 1.153094
vt 0.378895 1.210496
vt 0.508127 1.153094
vt 0.514191 1.153094
vt 0.516222 1.210496
vt 0.509833 1.210496
vt 0.501886 1.153094
vt 0.503436 1.210496
vt 0.495542 1.153094
vt 0.497024 1.210496
vt 0.489142 1.153094
vt 0.490591 1.210496
vt 0.482704 1.153094
vt 0.484133 1.210496
vt 0.476243 1.153094
vt 0.477639 1.210496
vt 0.469756 1.153094
vt 0.471108 1.210496
vt 0.463248 1.153094
vt 0.464533 1.210496
vt 0.456705 1.153094
vt 0.457912 1.210496
vt 0.450114 1.153094
vt 0.451235 1.210496
vt 0.443462 1.153094
vt 0.444495 1.210496
vt 0.630354 0.555887
vt 0.630171 0.574748
vt 0.622558 0.569522
vt 0.622701 0.554823
vt 0.629936 0.598865
vt 0.622397 0.586014
vt 0.629716 0.621517
vt 0.622224 0.603865
vt 0.629512 0.642485
vt 0.622040 0.622719
vt 0.629325 0.661718
vt 0.621851 0.642176
vt 0.629152 0.679461
vt 0.621660 0.661838
vt 0.628987 0.696387
vt 0.621464 0.681935
vt 0.628829 0.712663
vt 0.621263 0.702574
vt 0.628683 0.727650
vt 0.621073 0.722171
vt 0.628533 0.743116
vt 0.620884 0.741623
vt 0.628377 0.759161
vt 0.620697 0.760772
vt 0.628207 0.776608
vt 0.620511 0.779960
vt 0.628024 0.795413
vt 0.620324 0.799158
vt 0.627819 0.816477
vt 0.620123 0.819819
vt 0.627606 0.838386
vt 0.619918 0.840849
vt 0.627384 0.861255
vt 0.619708 0.862437
vt 0.627152 0.885076
vt 0.619492 0.884651
vt 0.626911 0.909881
vt 0.619266 0.907931
vt 0.626669 0.934695
vt 0.619036 0.931607
vt 0.626426 0.959709
vt 0.618796 0.956217
vt 0.587831 0.946957
vt 0.572979 0.954301
vt 0.557232 0.903901
vt 0.599680 0.935368
vt 0.607327 0.920715
vt 0.610071 0.904415
vt 0.607645 0.888066
vt 0.600284 0.873266
vt 0.588711 0.861465
vt 0.574057 0.853819
vt 0.557758 0.851074
vt 0.541408 0.853501
vt 0.526608 0.860861
vt 0.514808 0.872435
vt 0.507161 0.887088
vt 0.504416 0.903388
vt 0.506843 0.919737
vt 0.514204 0.934537
vt 0.525777 0.946338
vt 0.540382 0.953968
vt 0.556629 0.956728
vt 0.411162 0.859995
vt 0.367966 0.837427
vt 0.460997 0.711917
vt 0.333737 0.802525
vt 0.311968 0.758753
vt 0.304790 0.710397
vt 0.312907 0.662190
vt 0.335523 0.618850
vt 0.370426 0.584621
vt 0.414197 0.562852
vt 0.462553 0.555674
vt 0.510760 0.563791
vt 0.554100 0.586407
vt 0.588329 0.621309
vt 0.610098 0.665081
vt 0.617276 0.713437
vt 0.609159 0.761644
vt 0.586543 0.804984
vt 0.551496 0.839259
vt 0.507571 0.860979
vt 0.459215 0.868157
vn 0.951057 0.000000 -0.309017
vn 0.809017 0.000000 -0.587786
vn 0.809017 0.000000 -0.587786
vn 0.951057 0.000000 -0.309017
vn 0.587784 0.000000 -0.809018
vn 0.587784 0.000000 -0.809018
vn 0.309017 0.000000 -0.951057
vn 0.309017 0.000000 -0.951057
vn 0.000000 0.000000 -1.000000
vn 0.000000 0.000000 -1.000000
vn -0.309017 0.000000 -0.951057
vn -0.309017 0.000000 -0.951057
vn -0.587784 0.000000 -0.809018
vn -0.587784 0.000000 -0.809018
vn -0.809017 0.000000 -0.587786
vn -0.809017 0.000000 -0.587786
vn -0.951057 0.000000 -0.309017
vn -0.951057 0.000000 -0.309017
vn -1.000000 0.000000 0.000000
vn -1.000000 0.000000 0.000000
vn -0.951055 0.000000 0.309020
vn -0.951055 0.000000 0.309020
vn -0.809017 0.000000 0.587786
vn -0.809017 0.000000 0.587786
vn -0.587788 0.000000 0.809015
vn -0.587788 0.000000 0.809015
vn -0.309017 0.000000 0.951057
vn -0.309017 0.000000 0.951057
vn 0.000000 0.000000 1.000000
vn 0.000000 0.000000 1.000000
vn 0.309017 0.000000 0.951057
vn 0.309017 0.000000 0.951057
vn 0.587788 0.000000 0.809015
vn 0.587788 0.000000 0.809015
vn 0.809017 0.000000 0.587786
vn 0.809017 0.000000 0.587786
vn 0.951055 0.000000 0.309020
vn 0.951055 0.000000 0.309020
vn 1.000000 0.000000 0.000000
vn 1.000000 0.000000 0.000000
vn -0.809015 0.000000 -0.587788
vn -0.951056 0.000000 -0.309018
vn -0.951056 0.000000 -0.309018
vn -0.809015 0.000000 -0.587788
vn -0.587786 0.000000 -0.809016
vn -0.587786 0.000000 -0.809016
vn -0.309016 0.000000 -0.951057
vn -0.309016 0.000000 -0.951057
vn 0.000000 0.000000 -1.000000
vn 0.000000 0.000000 -1.000000
vn 0.309016 0.000000 -0.951057
vn 0.309016 0.000000 -0.951057
vn 0.587786 0.000000 -0.809016
vn 0.587786 0.000000 -0.809016
vn 0.809015 0.000000 -0.587788
vn 0.809015 0.000000 -0.587788
vn 0.951056 0.000000 -0.309018
vn 0.951056 0.000000 -0.309018
vn 1.000000 0.000000 0.000004
vn 1.000000 0.000000 0.000004
vn 0.951056 0.000000 0.309020
vn 0.951056 0.000000 0.309020
vn 0.809016 0.000000 0.587787
vn 0.809016 0.000000 0.587787
vn 0.587788 0.000000 0.809015
vn 0.587788 0.000000 0.809015
vn 0.309019 0.000000 0.951056
vn 0.309019 0.000000 0.951056
vn 0.000000 0.000000 1.000000
vn 0.000000 0.000000 1.000000
vn -0.309019 0.000000 0.951056
vn -0.309019 0.000000 0.951056
vn -0.587788 0.000000 0.809015
vn -0.587788 0.000000 0.809015
vn -0.809014 0.000000 0.587789
vn -0.809014 0.000000 0.587789
vn -0.951056 0.000000 0.309020
vn -0.951056 0.000000 0.309020
vn -1.000000 0.000000 0.000000
vn -1.000000 0.000000 0.000000
vn 0.000000 1.000000 0.000000
vn 0.000000 1.000000 0.000000
vn 0.000000 1.000000 0.000000
vn 0.000000 1.000000 0.000000
vn 0.000000 1.000000 -0.000000
vn 0.000000 1.000000 -0.000000
vn 0.000000 1.000000 -0.000000
vn 0.000000 1.000000 -0.000000
vn 0.000000 1.000000 0.000000
vn 0.000000 1.000000 0.000000
vn 0.000000 1.000000 -0.000000
vn 0.000000 1.000000 -0.000000
vn 0.000000 1.000000 -0.000000
vn 0.000000 1.000000 0.000000
vn 0.000000 1.000000 0.000000
vn 0.000000 1.000000 0.000000
vn 0.000000 1.000000 0.000000
vn 0.000000 1.000000 0.000000
vn 0.000000 1.000000 -0.000000
vn 0.000000 1.000000 -0.000000
vn 0.000000 1.000000 -0.000000
vn 0.000000 1.000000 -0.000000
vn 0.000000 1.000000 -0.000000
vn 0.000000 1.000000 -0.000000
vn 0.000000 1.000000 0.000000
vn 0.000000 1.000000 0.000000
vn 0.000000 1.000000 0.000000
vn 0.000000 1.000000 0.000000
vn 0.000000 1.000000 0.000000
vn 0.000000 1.000000 0.000000
vn 0.000000 1.000000 0.000000
vn 0.000000 1.000000 0.000000
vn 0.000000 1.000000 -0.000000
vn 0.000000 1.000000 0.000000
vn 0.000000 1.000000 -0.000000
vn 0.000000 1.000000 -0.000000
vn 0.000000 1.000000 0.000000
vn 0.000000 1.000000 0.000000
vn 0.000000 1.000000 0.000000
vn 0.000000 1.000000 0.000000
vn 0.951057 0.000000 -0.309016
vn 0.809017 0.000000 -0.587786
vn 0.809017 0.000000 -0.587786
vn 0.951057 0.000000 -0.309016
vn 0.587785 0.000000 -0.809017
vn 0.587785 0.000000 -0.809017
vn 0.309017 0.000000 -0.951057
vn 0.309017 0.000000 -0.951057
vn 0.000000 0.000000 -1.000000
vn 0.000000 0.000000 -1.000000
vn -0.309017 0.000000 -0.951057
vn -0.309017 0.000000 -0.951057
vn -0.587786 0.000000 -0.809017
vn -0.587786 0.000000 -0.809017
vn -0.809017 0.000000 -0.587785
vn -0.809017 0.000000 -0.587785
vn -0.951057 0.000000 -0.309017
vn -0.951057 0.000000 -0.309017
vn -1.000000 0.000000 0.000000
vn -1.000000 0.000000 0.000000
vn -0.951057 0.000000 0.309017
vn -0.951057 0.000000 0.309017
vn -0.809017 0.000000 0.587786
vn -0.809017 0.000000 0.587786
vn -0.587785 0.000000 0.809017
vn -0.587785 0.000000 0.809017
vn -0.309017 0.000000 0.951057
vn -0.309017 0.000000 0.951057
vn -0.000000 0.000000 1.000000
vn -0.000000 0.000000 1.000000
vn 0.309017 0.000000 0.951057
vn 0.309017 0.000000 0.951057
vn 0.587786 0.000000 0.809017
vn 0.587786 0.000000 0.809017
vn 0.809017 0.000000 0.587785
vn 0.809017 0.000000 0.587785
vn 0.951057 0.000000 0.309017
vn 0.951057 0.000000 0.309017
vn 1.000000 0.000000 0.000001
vn 1.000000 0.000000 0.000001
vn 0.000000 -1.000000 0.000000
vn 0.000000 -1.000000 0.000000
vn 0.000000 -1.000000 0.000000
vn 0.000000 -1.000000 0.000000
vn 0.000000 -1.000000 0.000000
vn 0.000000 -1.000000 0.000000
vn 0.000000 -1.000000 0.000000
vn 0.000000 -1.000000 0.000000
vn 0.000000 -1.000000 0.000000
vn 0.000000 -1.000000 -0.000000
vn 0.000000 -1.000000 0.000000
vn 0.000000 -1.000000 0.000000
vn 0.000000 -1.000000 0.000000
vn 0.000000 -1.000000 0.000000
vn 0.000000 -1.000000 0.000000
vn 0.000000 -1.000000 0.000000
vn 0.000000 -1.000000 0.000000
vn 0.000000 -1.000000 0.000000
vn 0.000000 -1.000000 0.000000
vn 0.000000 -1.000000 0.000000
vn 0.000000 -1.000000 0.000000
vn 0.000000 1.000000 0.000000
vn 0.000000 1.000000 0.000000
vn 0.000000 1.000000 0.000000
vn 0.000000 1.000000 0.000000
vn 0.000000 1.000000 0.000000
vn 0.000000 1.000000 0.000000
vn 0.000000 1.000000 0.000000
vn 0.000000 1.000000 -0.000000
vn 0.000000 1.000000 -0.000000
vn 0.000000 1.000000 0.000000
vn 0.000000 1.000000 0.000000
vn 0.000000 1.000000 0.000000
vn 0.000000 1.000000 0.000000
vn 0.000000 1.000000 0.000000
vn 0.000000 1.000000 0.000000
vn 0.000000 1.000000 0.000000
vn 0.000000 1.000000 0.000000
vn 0.000000 1.000000 0.000000
vn 0.000000 1.000000 -0.000000
vn 0.000000 1.000000 -0.000000
vn 0.000000 1.000000 0.000000
g polySurface1316
usemtl initialShadingGroup
f 41/1/1 42/2/2 43/3/3 44/4/4
f 42/2/2 45/5/5 46/6/6 43/3/3
f 45/5/5 47/7/7 48/8/8 46/6/6
f 47/7/7 49/9/9 50/10/10 48/8/8
f 49/9/9 51/11/11 52/12/12 50/10/10
f 51/11/11 53/13/13 54/14/14 52/12/12
f 53/13/13 55/15/15 56/16/16 54/14/14
f 55/15/15 57/17/17 58/18/18 56/16/16
f 57/17/17 59/19/19 60/20/20 58/18/18
f 59/19/19 61/21/21 62/22/22 60/20/20
f 61/21/21 63/23/23 64/24/24 62/22/22
f 63/23/23 65/25/25 66/26/26 64/24/24
f 65/25/25 67/27/27 68/28/28 66/26/26
f 67/27/27 69/29/29 70/30/30 68/28/28
f 69/29/29 71/31/31 72/32/32 70/30/30
f 71/31/31 73/33/33 74/34/34 72/32/32
f 73/33/33 75/35/35 76/36/36 74/34/34
f 75/35/35 77/37/37 78/38/38 76/36/36
f 77/37/37 79/39/39 80/40/40 78/38/38
f 79/39/39 41/41/1 44/42/4 80/40/40
f 22/43/41 21/44/42 9/45/43 8/46/44
f 23/47/45 22/43/41 8/46/44 7/48/46
f 24/49/47 23/47/45 7/48/46 6/50/48
f 25/51/49 24/49/47 6/50/48 5/52/50
f 26/53/51 25/51/49 5/52/50 4/54/52
f 27/55/53 26/53/51 4/54/52 3/56/54
f 28/57/55 27/55/53 3/56/54 2/58/56
f 29/59/57 28/57/55 2/58/56 1/60/58
f 30/61/59 29/62/57 1/63/58 20/64/60
f 31/65/61 30/61/59 20/64/60 19/66/62
f 32/67/63 31/65/61 19/66/62 18/68/64
f 33/69/65 32/67/63 18/68/64 17/70/66
f 34/71/67 33/69/65 17/70/66 16/72/68
f 35/73/69 34/71/67 16/72/68 15/74/70
f 36/75/71 35/73/69 15/74/70 14/76/72
f 37/77/73 36/75/71 14/76/72 13/78/74
f 38/79/75 37/77/73 13/78/74 12/80/76
f 39/81/77 38/79/75 12/80/76 11/82/78
f 40/83/79 39/81/77 11/82/78 10/84/80
f 21/44/42 40/83/79 10/84/80 9/45/43
f 28/57/81 29/59/82 44/4/83 43/3/84
f 27/55/85 28/57/81 43/3/84 46/6/86
f 26/53/87 27/55/85 46/6/86 48/8/88
f 25/51/89 26/53/87 48/8/88 50/10/90
f 24/49/91 25/51/89 50/10/90 52/12/92
f 23/47/93 24/49/91 52/12/92 54/14/94
f 22/43/95 23/47/93 54/14/94 56/16/96
f 21/44/97 22/43/95 56/16/96 58/18/98
f 40/83/99 21/44/97 58/18/98 60/20/100
f 39/81/101 40/83/99 60/20/100 62/22/102
f 38/79/103 39/81/101 62/22/102 64/24/104
f 37/77/105 38/79/103 64/24/104 66/26/106
f 36/75/107 37/77/105 66/26/106 68/28/108
f 35/73/109 36/75/107 68/28/108 70/30/110
f 34/71/111 35/73/109 70/30/110 72/32/112
f 33/69/113 34/71/111 72/32/112 74/34/114
f 32/67/115 33/69/113 74/34/114 76/36/116
f 31/65/117 32/67/115 76/36/116 78/38/118
f 30/61/119 31/65/117 78/38/118 80/40/120
f 29/62/82 30/61/119 80/40/120 44/42/83
usemtl polySurface42SG3
f 81/85/121 82/86/122 102/87/123 101/88/124
f 82/86/122 83/89/125 103/90/126 102/87/123
f 83/89/125 84/91/127 104/92/128 103/90/126
f 84/91/127 85/93/129 105/94/130 104/92/128
f 85/93/129 86/95/131 106/96/132 105/94/130
f 86/95/131 87/97/133 107/98/134 106/96/132
f 87/97/133 88/99/135 108/100/136 107/98/134
f 88/99/135 89/101/137 109/102/138 108/100/136
f 89/101/137 90/103/139 110/104/140 109/102/138
f 90/103/139 91/105/141 111/106/142 110/104/140
f 91/105/141 92/107/143 112/108/144 111/106/142
f 92/107/143 93/109/145 113/110/146 112/108/144
f 93/109/145 94/111/147 114/112/148 113/110/146
f 94/111/147 95/113/149 115/114/150 114/112/148
f 95/113/149 96/115/151 116/116/152 115/114/150
f 96/115/151 97/117/153 117/118/154 116/116/152
f 97/117/153 98/119/155 118/120/156 117/118/154
f 98/119/155 99/121/157 119/122/158 118/120/156
f 99/121/157 100/123/159 120/124/160 119/122/158
f 100/123/159 81/125/121 101/126/124 120/124/160
f 82/127/161 81/128/162 121/129/163
f 83/130/164 82/127/161 121/129/163
f 84/131/165 83/130/164 121/129/163
f 85/132/166 84/131/165 121/129/163
f 86/133/167 85/132/166 121/129/163
f 87/134/168 86/133/167 121/129/163
f 88/135/169 87/134/168 121/129/163
f 89/136/170 88/135/169 121/129/163
f 90/137/171 89/136/170 121/129/163
f 91/138/172 90/137/171 121/129/163
f 92/139/173 91/138/172 121/129/163
f 93/140/174 92/139/173 121/129/163
f 94/141/175 93/140/174 121/129/163
f 95/142/176 94/141/175 121/129/163
f 96/143/177 95/142/176 121/129/163
f 97/144/178 96/143/177 121/129/163
f 98/145/179 97/144/178 121/129/163
f 99/146/180 98/145/179 121/129/163
f 100/147/181 99/146/180 121/129/163
f 81/128/162 100/147/181 121/129/163
f 101/148/182 102/149/183 122/150/184
f 102/149/183 103/151/185 122/150/184
f 103/151/185 104/152/186 122/150/184
f 104/152/186 105/153/187 122/150/184
f 105/153/187 106/154/188 122/150/184
f 106/154/188 107/155/189 122/150/184
f 107/155/189 108/156/190 122/150/184
f 108/156/190 109/157/191 122/150/184
f 109/157/191 110/158/192 122/150/184
f 110/158/192 111/159/193 122/150/184
f 111/159/193 112/160/194 122/150/184
f 112/160/194 113/161/195 122/150/184
f 113/161/195 114/162/196 122/150/184
f 114/162/196 115/163/197 122/150/184
f 115/163/197 116/164/198 122/150/184
f 116/164/198 117/165/199 122/150/184
f 117/165/199 118/166/200 122/150/184
f 118/166/200 119/167/201 122/150/184
f 119/167/201 120/168/202 122/150/184
f 120/168/202 101/148/182 122/150/184
